<svg width="100%" viewBox="0 0 270 321" fill="none" xmlns="http://www.w3.org/2000/svg">
<path d="M222.595 128.593C216.052 123.086 228.48 121.198 231.76 128.806C236.421 139.62 211.47 147.779 206.698 156.899C188.445 191.79 128.215 183.517 102.27 212.992C95.4345 220.758 33.2677 238.692 20.7034 228.277C18.068 226.092 34.4328 229.649 37.8037 227.381C47.5733 220.807 63.7891 226.527 71.9618 218.111C103.083 186.064 170.458 195.909 192.129 156.828C194.298 152.916 225.874 131.352 222.595 128.593Z" fill="#3FFFB2"/>
<path d="M139.66 176.531C139.097 176.804 138.77 177.416 138.908 178.037C139.462 180.529 152.014 173.967 154.04 173.005C166.772 166.955 187.605 158.585 195.55 145.755C197.909 141.945 192.746 142.807 191.023 144.776C188.324 147.859 185.026 150.455 181.755 152.895C172.542 159.769 162.417 165.423 152.164 170.574C148.035 172.648 143.817 174.519 139.66 176.531Z" fill="#3FFFB2"/>
<path d="M199.337 138.546C199.015 137.998 199.139 137.315 199.591 136.883C202.93 133.693 206.372 130.618 209.666 127.379C214.332 125.875 213.298 127.911 212.197 129.117C210.564 130.654 200.629 140.749 199.337 138.546Z" fill="#3FFFB2"/>
</svg>
