<svg width="100%" viewBox="0 0 270 321" fill="none" xmlns="http://www.w3.org/2000/svg">
<path d="M18.1993 236.577C12.7328 234.898 8.5564 242.028 13.034 245.799C18.0604 250.032 29.4739 251.154 35.8191 252.711C57.7534 258.096 80.987 261.11 103.409 257.01C150.711 248.361 173.479 209.122 208.938 181.906C222.25 171.69 244.081 163.281 253.116 182.878C254.287 185.42 258.09 185.421 258.976 182.628C260.93 176.474 249.748 168.049 245.266 166.064C233.009 160.633 219.222 166.314 208.828 173.194C155.255 208.656 143.549 258.443 64.466 247.88C48.6036 245.762 33.4486 241.259 18.1993 236.577ZM155.03 197.013C154.916 197.361 160.169 190.176 162.619 186.672C169.101 177.401 178.017 165.873 189.705 163.341C192.94 162.64 194.442 158.65 191.976 156.194C187.884 152.119 179.22 159.546 176.156 162.438C166.636 171.422 159.117 184.603 155.03 197.013ZM145.088 212.514C147.617 210.607 145.637 206.405 142.536 207.532C136.441 209.749 133.347 216.032 125.94 217.186C125.492 217.256 143.555 213.669 145.088 212.514Z" fill="#3FFFB2"/>
</svg>
