<svg width="100%" viewBox="0 0 270 321" fill="none" xmlns="http://www.w3.org/2000/svg">
<path d="M253.478 244.257C257.964 243.986 259.82 250.221 255.734 252.3C251.553 254.426 243.651 253.472 238.974 253.665C222.083 254.364 204.763 254.254 188.19 250.503C164.788 245.205 150.963 229.185 130.73 217.998C112.177 207.741 89.3236 203.852 68.2921 204.046C52.0721 204.196 27.0871 207.885 19.4958 225.08C17.6817 229.189 11.2629 227.541 12.0698 222.978C13.5366 214.683 23.846 207.702 30.5949 204.236C49.6599 194.447 72.7925 194.835 93.4247 197.997C112.136 200.864 129.893 206.565 145.382 217.681C155.785 225.147 165.24 233.739 177.307 238.532C201.222 248.031 228.431 245.767 253.478 244.257ZM73.9424 215.697C75.5505 216.082 71.838 216.56 71.3683 216.56C61.6627 216.57 50.3775 218.449 43.2722 225.612C41.5842 227.314 38.5422 226.502 38.2515 223.992C37.8204 220.271 45.42 217.591 48.2351 216.693C56.1325 214.174 65.8403 213.762 73.9424 215.697ZM99.5341 223.507C99.6036 223.746 89.1115 219.623 87.3224 219.939C83.6572 220.586 80.9533 216.137 83.7711 213.381C88.8098 208.454 98.1681 218.809 99.5341 223.507ZM230.488 232.097C232.04 232.305 229.344 233.094 228.848 233.117C221.111 233.48 206.259 235.504 199.784 230.092C197.797 228.43 198.826 225.001 201.557 225.097C207.247 225.296 222.478 231.026 230.488 232.097Z" fill="#441DD1"/>
</svg>
