<svg width="100%" viewBox="0 0 270 321" fill="none" xmlns="http://www.w3.org/2000/svg">
<path d="M50.4789 263.879C46.6909 265.304 66.4799 253.674 70.9618 251.769C87.0446 244.935 103.073 237.968 119.001 230.779C128.427 226.525 137.824 222.205 147.164 217.764C177.915 203.14 292.837 160.604 219.611 127.303C214.435 124.95 215.863 116.878 221.765 117.001C247.598 117.541 264.214 148.275 246.88 167.253C208.56 209.208 102.332 244.382 50.4789 263.879ZM188.015 135.235C190.217 125.87 204.5 129.682 201.475 138.72C196.258 154.305 180.363 171.473 166.133 179.661C163.668 181.079 167.244 176.149 167.646 175.677C177.642 163.984 184.508 150.151 188.015 135.235ZM148.15 189.081C148.152 189.159 149.804 184.07 151.989 183.569C155.019 182.874 158.022 185.197 158.106 188.301C158.177 190.925 156.224 192.53 154.49 193.249C151.959 194.3 143.137 198.417 141.795 197.823C140.467 197.236 142.486 195.091 143.388 193.781C147.847 187.301 147.991 182.799 148.15 189.081ZM142.079 196.302C142.514 196.302 142.866 196.654 142.866 197.088C142.866 197.523 142.514 197.875 142.079 197.875C141.643 197.875 141.291 197.523 141.291 197.088C141.291 196.654 141.643 196.302 142.079 196.302Z" fill="white"/>
</svg>
