<svg width="100%" viewBox="0 0 270 321" fill="none" xmlns="http://www.w3.org/2000/svg">
<path d="M44.845 189.634C42.169 187.188 37.8061 190.107 39.3059 193.451C40.9848 197.196 47.0341 200.931 50.141 203.626C60.805 212.874 72.1627 221.433 84.2973 228.734C121.143 250.903 164.34 258.883 204.883 241.722C245.955 224.337 263.726 195.617 234.697 156.343C224.244 142.202 196.777 120.127 182.474 142.662C175.524 153.613 194.993 139.355 197.503 139.043C204.972 138.114 212.374 142.612 217.883 147.076C235.899 161.674 253.669 194.988 235.309 215.613C227.058 224.882 213.433 231.376 202.093 236.117C143.451 260.635 87.5762 228.699 44.845 189.634ZM145.284 224.688C141.531 225.381 141.188 230.796 145.036 231.656C152.241 233.267 165.769 229.17 173.553 227.415C191.377 223.395 185.997 207.299 196.045 202.622C202.388 199.669 210.442 204.833 216.086 207.225C218.498 208.247 221.084 205.734 219.718 203.38C216.496 197.832 200.95 195.015 195.348 196.574C184.527 199.584 186.846 212.377 179.177 218.244C170.902 224.576 155.269 222.843 145.284 224.688Z" fill="#441DD1"/>
<path d="M115.829 220C128.212 220 141.282 230.269 132.339 230.971C125.185 231.532 118.352 223.891 115.829 220Z" fill="#441DD1"/>
</svg>
