<svg width="100%" viewBox="0 0 270 321" fill="none" xmlns="http://www.w3.org/2000/svg">
<path d="M190.595 121.232C187.137 115.436 193.658 108.376 199.656 111.982C207.353 116.61 212.189 134.545 214.564 142.777C221.919 168.271 216.464 194.296 198.724 214.165C169.398 247.011 79.7819 278.127 38.8122 252.209C36.7713 250.918 39 248.879 40.8519 249.853C51.8621 255.639 65.6055 256.179 77.7693 255.785C104.645 254.916 131.994 247.726 155.856 235.402C205.828 209.592 219.831 170.232 190.595 121.232ZM203.169 233.664C209.911 229.227 217.405 238.765 210.995 243.871C194.446 257.056 158.977 271.754 137.794 273C137.219 273.034 149.881 267.004 155.831 263.829C172.439 254.965 187.5 243.976 203.169 233.664ZM217.782 205.481C217.309 198.524 226.735 195.049 230.309 201.467C234.06 208.205 221.654 222.714 214.456 223.448C214.073 223.487 217.988 208.503 217.782 205.481Z" fill="white"/>
</svg>
