<svg width="100%" viewBox="0 0 879 606" fill="none" xmlns="http://www.w3.org/2000/svg">
<mask id="mask0_55_773" style="mask-type:alpha" maskUnits="userSpaceOnUse" x="0" y="0" width="879" height="606">
<rect x="0.341797" y="0.773109" width="878.317" height="605.227" fill="url(#paint0_linear_55_773)"/>
</mask>
<g mask="url(#mask0_55_773)">
<g filter="url(#filter0_i_55_773)">
<path d="M84.748 663.491C135.343 483.928 359.255 166.268 770.581 100.865C859.867 86.6683 935.876 106.118 985.094 106.118" stroke="#441DD1" stroke-width="120"/>
<path d="M84.748 663.491C135.343 483.928 359.255 166.268 770.581 100.865C859.867 86.6683 935.876 106.118 985.094 106.118" stroke="url(#paint1_radial_55_773)" stroke-width="120"/>
</g>
<g filter="url(#filter1_i_55_773)">
<path d="M537 493.824C633.65 493.824 712 415.513 712 318.912C712 222.311 633.65 144 537 144C440.35 144 362 222.311 362 318.912C362 415.513 440.35 493.824 537 493.824ZM537 493.824V652" stroke="#3FFFB2" stroke-width="80"/>
</g>
</g>
<defs>
<filter id="filter0_i_55_773" x="26.9961" y="35.6784" width="958.098" height="653.085" filterUnits="userSpaceOnUse" color-interpolation-filters="sRGB">
<feFlood flood-opacity="0" result="BackgroundImageFix"/>
<feBlend mode="normal" in="SourceGraphic" in2="BackgroundImageFix" result="shape"/>
<feColorMatrix in="SourceAlpha" type="matrix" values="0 0 0 0 0 0 0 0 0 0 0 0 0 0 0 0 0 0 127 0" result="hardAlpha"/>
<feOffset dy="9"/>
<feGaussianBlur stdDeviation="20"/>
<feComposite in2="hardAlpha" operator="arithmetic" k2="-1" k3="1"/>
<feColorMatrix type="matrix" values="0 0 0 0 0.592014 0 0 0 0 0.479167 0 0 0 0 1 0 0 0 0.56 0"/>
<feBlend mode="normal" in2="shape" result="effect1_innerShadow_55_773"/>
</filter>
<filter id="filter1_i_55_773" x="322" y="104" width="430" height="557" filterUnits="userSpaceOnUse" color-interpolation-filters="sRGB">
<feFlood flood-opacity="0" result="BackgroundImageFix"/>
<feBlend mode="normal" in="SourceGraphic" in2="BackgroundImageFix" result="shape"/>
<feColorMatrix in="SourceAlpha" type="matrix" values="0 0 0 0 0 0 0 0 0 0 0 0 0 0 0 0 0 0 127 0" result="hardAlpha"/>
<feOffset dy="9"/>
<feGaussianBlur stdDeviation="20"/>
<feComposite in2="hardAlpha" operator="arithmetic" k2="-1" k3="1"/>
<feColorMatrix type="matrix" values="0 0 0 0 0.820833 0 0 0 0 1 0 0 0 0 0.928147 0 0 0 1 0"/>
<feBlend mode="normal" in2="shape" result="effect1_innerShadow_55_773"/>
</filter>
<linearGradient id="paint0_linear_55_773" x1="439.5" y1="204.5" x2="439.5" y2="606" gradientUnits="userSpaceOnUse">
<stop stop-color="#D9D9D9"/>
<stop offset="0.616068" stop-color="#D9D9D9" stop-opacity="0.5"/>
<stop offset="1" stop-color="#737373" stop-opacity="0"/>
</linearGradient>
<radialGradient id="paint1_radial_55_773" cx="0" cy="0" r="1" gradientUnits="userSpaceOnUse" gradientTransform="translate(391.493 318.792) rotate(51.6466) scale(45.5879 161.432)">
<stop stop-color="#8867FF"/>
<stop offset="1" stop-color="#AF99FF" stop-opacity="0"/>
</radialGradient>
</defs>
</svg>
