<svg width="100%" viewBox="0 0 140 140" fill="none" xmlns="http://www.w3.org/2000/svg">
<circle cx="70" cy="70" r="70" fill="#3FFFB2"/>
<path fill-rule="evenodd" clip-rule="evenodd" d="M56.1152 52.3001C56.1155 51.7473 56.3353 51.2172 56.7261 50.8264C57.117 50.4355 57.6471 50.2157 58.1998 50.2154L87.6999 50.2154C88.2527 50.2157 88.7827 50.4355 89.1736 50.8264C89.5645 51.2172 89.7842 51.7473 89.7846 52.3001L89.7846 81.8001C89.7945 82.0801 89.7479 82.3592 89.6475 82.6207C89.5472 82.8823 89.3953 83.1209 89.2007 83.3225C89.0062 83.524 88.773 83.6843 88.5152 83.7938C88.2573 83.9033 87.98 83.9597 87.6999 83.9597C87.4198 83.9597 87.1425 83.9033 86.8847 83.7938C86.6268 83.6843 86.3937 83.524 86.1991 83.3225C86.0046 83.1209 85.8526 82.8823 85.7523 82.6207C85.652 82.3592 85.6054 82.0801 85.6152 81.8001L85.6152 57.3347L53.7748 89.1752C53.3836 89.5664 52.8531 89.7861 52.2998 89.7861C51.7466 89.7861 51.216 89.5664 50.8248 89.1752C50.4336 88.784 50.2139 88.2534 50.2139 87.7002C50.2139 87.1469 50.4336 86.6163 50.8248 86.2252L82.6652 54.3847L58.1998 54.3847C57.6471 54.3844 57.117 54.1646 56.7261 53.7738C56.3353 53.3829 56.1155 52.8528 56.1152 52.3001Z" fill="#441DD1"/>
</svg>
