<svg width="100%" viewBox="0 0 54 47" fill="none" xmlns="http://www.w3.org/2000/svg">
<path fill-rule="evenodd" clip-rule="evenodd" d="M4.1666 32.6265C4.05386 34.1826 1.71036 34.2261 1.64822 32.6397C1.4078 26.5017 4.15548 19.5573 7.10747 14.3513C9.58473 9.98257 12.8394 5.80906 16.6631 2.53408C18.451 1.00279 16.6771 4.61963 16.0439 5.28871C9.53826 12.1629 5.13398 20.9831 4.29406 30.4635C4.25817 30.8686 4.23884 31.2743 4.21952 31.6799L4.21952 31.6799C4.20448 31.9956 4.18945 32.3112 4.1666 32.6265ZM18.2025 38.7315C16.9823 39.7038 15.3613 38.0108 16.4852 36.8895C20.8336 32.5508 27.8009 29.8615 33.6289 28.5012C38.5196 27.3597 43.794 26.9219 48.7939 27.5117C51.1317 27.7875 47.2705 28.9361 46.3494 28.9244C36.8856 28.804 27.4164 31.5475 19.8788 37.3585C19.5567 37.6068 19.2455 37.8676 18.9343 38.1284L18.9342 38.1285L18.9341 38.1286C18.6919 38.3316 18.4497 38.5345 18.2025 38.7315ZM19.0646 18.7636C18.9197 16.1741 9.27798 33.4855 11.0663 33.3356C12.6875 33.1997 15.7357 28.0383 17.531 24.9982C18.0646 24.0947 18.4875 23.3786 18.7294 23.0374C19.2385 22.3195 20.3202 20.7928 21.0072 19.8229C20.9646 19.891 20.9385 19.931 20.9386 19.9311C20.939 19.9313 21.0621 19.7461 21.4073 19.2582C21.6552 18.9082 21.719 18.8181 21.4412 19.2103C21.4296 19.2266 21.4183 19.2425 21.4073 19.2582C21.3027 19.4058 21.1654 19.5996 21.0072 19.8229C21.2008 19.5134 21.7345 18.622 21.6812 18.2423C21.599 17.6578 20.479 18.1823 19.7312 18.5325C19.3524 18.7099 19.069 18.8426 19.0646 18.7636Z" fill="white"/>
</svg>
