<svg width="100%" viewBox="0 0 170 28" fill="none" xmlns="http://www.w3.org/2000/svg">
<path d="M46.1025 23.244V9.13951H49.893L53.6318 19.1699L57.3706 9.13951H61.0837V23.244H57.9637V14.116L54.8437 23.244H52.4199L49.2225 14.0387V23.244H46.1025Z" fill="white"/>
<path fill-rule="evenodd" clip-rule="evenodd" d="M62.1924 18.3964C62.1924 15.4311 64.2294 13.2909 67.5815 13.2909C70.9078 13.2909 72.9706 15.4311 72.9706 18.3964C72.9706 21.3617 70.9078 23.5018 67.5815 23.5018C64.2294 23.5018 62.1924 21.3617 62.1924 18.3964ZM69.9021 18.3964C69.9021 16.9266 69.0254 15.8694 67.5815 15.8694C66.1117 15.8694 65.2608 16.9266 65.2608 18.3964C65.2608 19.8661 66.1117 20.9233 67.5815 20.9233C69.0254 20.9233 69.9021 19.8661 69.9021 18.3964Z" fill="white"/>
<path d="M80.6033 20.7944V23.244C80.165 23.3213 79.443 23.3987 78.5405 23.3987C77.0965 23.3987 75.1111 23.0892 75.1111 19.8403V15.9725H73.564V13.5487H75.1111V10.6608H78.1795V13.5487H80.3712V15.9725H78.1795V19.1957C78.1795 20.6397 78.7726 20.8459 79.5461 20.8459C79.8813 20.8459 80.3197 20.8201 80.6033 20.7944Z" fill="white"/>
<path d="M81.7632 10.8155C81.7632 9.78413 82.5367 8.93321 83.6455 8.93321C84.7543 8.93321 85.5536 9.78413 85.5536 10.8155C85.5536 11.8469 84.7543 12.6978 83.6455 12.6978C82.5367 12.6978 81.7632 11.8469 81.7632 10.8155ZM82.1242 23.244V13.5488H85.1668V23.244H82.1242Z" fill="white"/>
<path fill-rule="evenodd" clip-rule="evenodd" d="M86.4561 18.3964C86.4561 15.4311 88.5189 13.2909 91.8452 13.2909C95.1714 13.2909 97.2342 15.4311 97.2342 18.3964C97.2342 21.3617 95.1714 23.5018 91.8452 23.5018C88.5189 23.5018 86.4561 21.3617 86.4561 18.3964ZM94.1658 18.3964C94.1658 16.9266 93.3149 15.8694 91.8452 15.8694C90.3754 15.8694 89.5503 16.9266 89.5503 18.3964C89.5503 19.8661 90.3754 20.9233 91.8452 20.9233C93.3149 20.9233 94.1658 19.8661 94.1658 18.3964Z" fill="white"/>
<path d="M98.498 23.244V13.5488H101.566V14.9412C102.134 13.8582 103.243 13.2909 104.712 13.2909C107.059 13.2909 108.271 14.6059 108.271 17.236V23.244H105.151V18.2417C105.151 16.6172 104.686 15.8694 103.449 15.8694C102.211 15.8694 101.566 16.6945 101.566 18.1643V23.244H98.498Z" fill="white"/>
<path d="M112.319 16.2046C112.319 11.8727 115.258 8.75273 119.874 8.75273C124.025 8.75273 126.707 10.9445 127.068 14.2707H123.613C123.252 12.6721 121.911 11.6664 119.9 11.6664C117.244 11.6664 115.722 13.4456 115.722 16.2046C115.722 18.9636 117.244 20.7428 119.9 20.7428C121.911 20.7428 123.252 19.7114 123.613 18.1385H127.068C126.707 21.4648 124.025 23.6565 119.874 23.6565C115.258 23.6565 112.319 20.5365 112.319 16.2046Z" fill="white"/>
<path d="M128.125 23.244V9.13951H131.193V23.244H128.125Z" fill="white"/>
<path d="M132.354 10.8155C132.354 9.78413 133.128 8.93321 134.236 8.93321C135.345 8.93321 136.144 9.78413 136.144 10.8155C136.144 11.8469 135.345 12.6978 134.236 12.6978C133.128 12.6978 132.354 11.8469 132.354 10.8155ZM132.715 23.244V13.5488H135.758V23.244H132.715Z" fill="white"/>
<path fill-rule="evenodd" clip-rule="evenodd" d="M144.499 13.5488H147.567V27.2665H144.499V21.8774C143.983 22.8572 142.771 23.5018 141.43 23.5018C138.516 23.5018 136.84 21.3101 136.84 18.3964C136.84 15.4826 138.645 13.2909 141.456 13.2909C142.874 13.2909 143.983 13.9355 144.499 14.9412V13.5488ZM144.627 18.3964C144.627 17.004 143.828 15.8436 142.307 15.8436C140.863 15.8436 139.986 16.9266 139.986 18.3964C139.986 19.8661 140.863 20.9491 142.307 20.9491C143.828 20.9491 144.627 19.8145 144.627 18.3964Z" fill="white"/>
<path d="M148.985 19.5309V13.5488H152.105V18.8605C152.105 20.1755 152.544 20.9233 153.73 20.9233C155.019 20.9233 155.586 20.0724 155.586 18.7574V13.5488H158.655V23.244H155.586V21.8516C155.045 22.883 154.039 23.5018 152.569 23.5018C150.249 23.5018 148.985 22.0579 148.985 19.5309Z" fill="white"/>
<path fill-rule="evenodd" clip-rule="evenodd" d="M169.897 19.2473H162.729C162.806 20.5107 163.657 21.2069 165.024 21.2069C165.952 21.2069 166.571 20.9233 166.829 20.3302H169.845C169.536 22.2383 167.602 23.5018 165.024 23.5018C161.723 23.5018 159.686 21.6453 159.686 18.3964C159.686 15.2248 161.749 13.2909 164.92 13.2909C167.937 13.2909 170 15.1474 170 17.8807C170 18.3964 169.974 18.7058 169.897 19.2473ZM166.957 17.3392C166.932 16.0499 166.21 15.3537 164.895 15.3537C163.554 15.3537 162.754 16.1273 162.729 17.3392H166.957Z" fill="white"/>
<path d="M16.5011 8.93322C18.6155 5.29752 15.9854 0.733551 11.7825 0.733551C9.82279 0.733551 8.01784 1.76496 7.038 3.46678L2.31932 11.6664L0.746428 14.3997C-1.36795 18.0354 1.26213 22.5736 5.46511 22.5736C7.42478 22.5736 9.22974 21.5421 10.2096 19.8403L14.9282 11.6664L16.5011 8.93322Z" fill="#3FFFB2"/>
<path d="M30.8634 9.37157C32.9778 5.73587 30.3477 1.17191 26.1448 1.17191C24.1851 1.17191 22.3801 2.22909 21.4003 3.90512L16.6816 12.1048L15.1087 14.838C12.9944 18.4737 15.6244 23.0119 19.8274 23.0119C21.7871 23.0119 23.592 21.9805 24.5719 20.3045L29.2906 12.1048L30.8634 9.37157Z" fill="#3FFFB2"/>
<path d="M30.6574 9.37157C32.746 5.73587 30.1159 1.17191 25.9129 1.17191C23.9533 1.17191 22.1741 2.22909 21.1943 3.90512L16.4498 12.1048L14.8769 14.838C12.7883 18.4737 15.3926 23.0119 19.6214 23.0119C21.5553 23.0119 23.3602 21.9805 24.34 20.3045L29.0587 12.1048L30.6574 9.37157Z" fill="#3FFFB2"/>
<path d="M33.7773 23.0377C30.7346 23.0377 28.2593 20.5623 28.2593 17.5197C28.2593 14.4512 30.7346 12.0016 33.7773 12.0016C36.8457 12.0016 39.3211 14.4512 39.3211 17.5197C39.3211 20.5623 36.8457 23.0377 33.7773 23.0377Z" fill="#3FFFB2"/>
</svg>
