<svg width="100%" viewBox="0 0 25 24" fill="none" xmlns="http://www.w3.org/2000/svg">
<g clip-path="url(#clip0_46_8531)">
<path d="M6.91602 16.1167L8.45202 15.672L9.6286 13.2763L12.6978 7.02759L12.5001 7.0849L6.91602 8.7014V16.1167Z" fill="white"/>
<path d="M6.61208 8.15664L11.8898 6.62879L11.9354 6.6158L6.61233 5.07471L1.28906 6.6158L5.26279 7.76589L6.61208 8.15664Z" fill="white" fill-opacity="0.8"/>
<path d="M13.301 7.17879L8.93857 16.0606L7.50293 18.9838L15.6947 15.707L15.7749 2.14209L13.301 7.17828V7.17879Z" fill="white" fill-opacity="0.6"/>
<path opacity="0.4" d="M7.65039 19.5794L15.674 23.2753L24.3194 19.5692L15.9973 16.2405L7.65039 19.5794Z" fill="white"/>
<path d="M0.5 14.4354L6.30827 16.1166V8.70121L0.5 7.02002V14.4354Z" fill="white"/>
<path d="M16.382 2.13306L16.3018 15.7077L24.4996 18.987L16.382 2.13306Z" fill="white"/>
</g>
<defs>
<clipPath id="clip0_46_8531">
<rect width="24" height="24" fill="white" transform="translate(0.5)"/>
</clipPath>
</defs>
</svg>
