<svg width="100%" viewBox="0 0 25 24" fill="none" xmlns="http://www.w3.org/2000/svg">
<g clip-path="url(#clip0_34_1078)">
<path d="M9.98404 2.505C9.63029 2.79368 9.33173 3.14402 9.10279 3.53907L1.54467 16.5741C1.04024 17.45 0.902926 18.4899 1.16272 19.4668C1.42252 20.4436 2.05831 21.2779 2.93123 21.7875C3.80715 22.2919 4.84709 22.4292 5.82391 22.1694C6.80074 21.9097 7.63507 21.2739 8.14467 20.4009L14.6411 9.19782C13.2076 7.14 11.1165 4.1386 9.98404 2.505Z" fill="white" fill-opacity="0.6"/>
<path d="M4.84496 22.3022C6.95176 22.3022 8.65965 20.5943 8.65965 18.4875C8.65965 16.3807 6.95176 14.6729 4.84496 14.6729C2.73817 14.6729 1.03027 16.3807 1.03027 18.4875C1.03027 20.5943 2.73817 22.3022 4.84496 22.3022Z" fill="white" fill-opacity="0.4"/>
<path d="M16.6282 20.4094C17.6816 22.2338 20.0146 22.8589 21.8391 21.8055C23.6635 20.7521 24.2886 18.4192 23.2352 16.5947L15.7013 3.54581C14.6479 1.72133 12.3149 1.09624 10.4904 2.14964C8.6659 3.20303 8.04081 5.53602 9.09421 7.3605L16.6282 20.4094Z" fill="white"/>
</g>
<defs>
<clipPath id="clip0_34_1078">
<rect width="24" height="24" fill="white" transform="translate(0.5)"/>
</clipPath>
</defs>
</svg>
