<svg width="100%" viewBox="0 0 33 33" fill="none" xmlns="http://www.w3.org/2000/svg">
<g clip-path="url(#clip0_125_52)">
<path d="M12.1484 14.3466C12.0151 13.9333 11.8951 13.5333 11.7617 13.1199C11.6284 12.7066 11.5084 12.3199 11.4017 11.9333C11.2951 11.5599 11.2017 11.2133 11.1084 10.8933H11.0817C10.9617 11.4666 10.8151 12.0399 10.6284 12.6133C10.4284 13.2533 10.2284 13.9199 10.0151 14.5866C9.84172 15.2666 9.62839 15.8933 9.42839 16.4533H12.8151C12.7351 16.1733 12.6284 15.8399 12.5084 15.4933C12.3884 15.1333 12.2684 14.7466 12.1484 14.3466ZM23.5884 13.9599C22.8551 13.9199 22.1617 14.3066 21.8151 14.9733C21.6551 15.2799 21.5617 15.5999 21.5217 15.9333H24.3337C24.6804 15.9333 24.9337 15.9333 25.0937 15.9199C25.2004 15.9066 25.3071 15.8799 25.4004 15.8133V15.6799C25.4004 15.5066 25.3724 15.3466 25.3191 15.1866C25.0817 14.4399 24.3751 13.9333 23.5884 13.9599ZM27.0951 0.439941H6.42839C3.29505 0.439941 0.761719 2.97327 0.761719 6.10661V25.9733C0.761719 29.1066 3.29505 31.6399 6.42839 31.6399H27.0951C30.2284 31.6399 32.7617 29.1066 32.7617 25.9733V6.10661C32.7617 2.97327 30.2284 0.439941 27.0951 0.439941ZM17.7084 22.4546H14.9217C14.8284 22.4679 14.7351 22.3999 14.7084 22.3079L13.6151 19.1079H8.65505L7.64172 22.2546C7.61505 22.3746 7.50839 22.4546 7.38839 22.4413H4.88172C4.73505 22.4413 4.69505 22.3613 4.73505 22.2013L9.02839 9.89327C9.06839 9.75994 9.10839 9.63994 9.16172 9.47994C9.21505 9.19994 9.24172 8.90661 9.24172 8.61327C9.22839 8.54661 9.28172 8.47994 9.34839 8.46661H12.8017C12.8951 8.46661 12.9617 8.50661 12.9751 8.57327L17.8417 22.2399C17.8817 22.3866 17.8431 22.4546 17.7084 22.4546ZM28.1764 17.1333C28.1484 17.3853 28.1351 17.5733 28.1217 17.6933C28.1084 17.7866 28.0297 17.8666 27.9351 17.8666C27.8551 17.8666 27.7084 17.8799 27.4951 17.8946C27.2831 17.9213 27.0284 17.9333 26.7231 17.9333C26.4164 17.9333 26.0951 17.8799 25.7497 17.8799H21.5231C21.5751 18.2933 21.7097 18.7066 21.9364 19.0666C22.1777 19.4279 22.5111 19.7066 22.9084 19.8679C23.4417 20.0946 24.0297 20.2146 24.6164 20.2013C25.0831 20.1866 25.5484 20.1479 26.0017 20.0546C26.4164 20.0026 26.8151 19.8959 27.1897 19.7479C27.2564 19.6959 27.2964 19.7213 27.2964 19.8546V21.8959C27.2964 21.9479 27.2831 22.0026 27.2684 22.0546C27.2404 22.0946 27.2151 22.1226 27.1764 22.1479C26.7497 22.3346 26.3097 22.4679 25.8431 22.5479C25.2151 22.6679 24.5897 22.7213 23.9497 22.7079C22.9351 22.7079 22.0831 22.5479 21.3897 22.2413C20.7364 21.9599 20.1617 21.5199 19.7084 20.9746C19.2831 20.4546 18.9751 19.8679 18.7884 19.2279C18.6017 18.5999 18.5097 17.9466 18.5097 17.2799C18.5097 16.5613 18.6164 15.8533 18.8431 15.1599C19.0564 14.4933 19.3897 13.8799 19.8431 13.3333C20.2831 12.7999 20.8284 12.3733 21.4551 12.0666C22.0831 11.7599 22.8284 11.6533 23.6817 11.6533C24.3897 11.6399 25.0951 11.7733 25.7484 12.0666C26.2951 12.3066 26.7751 12.6666 27.1484 13.1333C27.4951 13.5866 27.7751 14.0933 27.9497 14.6533C28.1217 15.1866 28.2017 15.7333 28.2017 16.2799C28.2017 16.5999 28.1884 16.8799 28.1764 17.1333Z" fill="black"/>
</g>
<defs>
<clipPath id="clip0_125_52">
<rect width="32" height="32" fill="white" transform="translate(0.761719 0.0400391)"/>
</clipPath>
</defs>
</svg>
