<svg width="100%" viewBox="0 0 24 24" fill="none" xmlns="http://www.w3.org/2000/svg">
<path d="M3.7557 1.50146C2.52195 1.50146 1.50195 2.51547 1.50195 3.74922V8.06172C1.50195 9.29547 2.52195 10.3155 3.7557 10.3155H8.82345C10.0572 10.3155 11.0712 9.29547 11.0712 8.06172V3.74922C11.0712 2.51547 10.0565 1.50146 8.82345 1.50146H3.7557ZM3.7557 3.00146H8.82345C9.2517 3.00146 9.5712 3.32097 9.5712 3.74922V8.06172C9.5712 8.48997 9.25245 8.81471 8.82345 8.81471H3.7557C3.32745 8.81471 3.0027 8.48997 3.0027 8.06172V3.74922C3.0027 3.32097 3.32745 3.00146 3.7557 3.00146Z" fill="black"/>
<path d="M15.1739 1.50146C13.9401 1.50146 12.9209 2.51547 12.9209 3.74922V13.6425C12.9209 14.8762 13.9401 15.8902 15.1739 15.8902H20.2469C21.4806 15.8902 22.4999 14.8755 22.4999 13.6425V3.74922C22.4999 2.51547 21.4806 1.50146 20.2469 1.50146H15.1739Z" fill="black"/>
<path d="M15.1739 17.5291C13.9401 17.5291 12.9209 18.5491 12.9209 19.7828V20.2478C12.9209 21.4816 13.9401 22.5008 15.1739 22.5008H20.2469C21.4806 22.5008 22.4999 21.4816 22.4999 20.2478V19.7828C22.4999 18.5491 21.4806 17.5291 20.2469 17.5291H15.1739ZM15.1739 19.0298H20.2469C20.6751 19.0298 20.9999 19.3546 20.9999 19.7828V20.2478C20.9999 20.6761 20.6751 21.0008 20.2469 21.0008H15.1739C14.7456 21.0008 14.4209 20.6761 14.4209 20.2478V19.7828C14.4209 19.3546 14.7456 19.0298 15.1739 19.0298Z" fill="black" fill-opacity="0.8"/>
<path d="M3.7557 12.0923C2.52195 12.0923 1.50195 13.1115 1.50195 14.346V20.2478C1.50195 21.4815 2.52195 22.5008 3.7557 22.5008H8.07945C9.3132 22.5008 11.0712 21.4815 11.0712 20.2478V14.346C11.0712 13.1115 10.0565 12.0923 8.82345 12.0923H3.7557Z" fill="black"/>
</svg>
