<svg width="100%" viewBox="0 0 24 24" fill="none" xmlns="http://www.w3.org/2000/svg">
<path fill-rule="evenodd" clip-rule="evenodd" d="M12.97 3.97007C13.1106 3.82962 13.3012 3.75073 13.5 3.75073C13.6988 3.75073 13.8894 3.82962 14.03 3.97007L21.53 11.4701C21.6705 11.6107 21.7493 11.8013 21.7493 12.0001C21.7493 12.1988 21.6705 12.3894 21.53 12.5301L14.03 20.0301C13.9613 20.1038 13.8785 20.1629 13.7865 20.2039C13.6945 20.2448 13.5952 20.2669 13.4945 20.2687C13.3938 20.2704 13.2938 20.2519 13.2004 20.2142C13.107 20.1765 13.0222 20.1203 12.951 20.0491C12.8797 19.9779 12.8236 19.8931 12.7859 19.7997C12.7482 19.7063 12.7296 19.6063 12.7314 19.5056C12.7332 19.4048 12.7552 19.3055 12.7962 19.2135C12.8372 19.1215 12.8963 19.0387 12.97 18.9701L19.19 12.7501H3C2.80109 12.7501 2.61032 12.6711 2.46967 12.5304C2.32902 12.3897 2.25 12.199 2.25 12.0001C2.25 11.8012 2.32902 11.6104 2.46967 11.4697C2.61032 11.3291 2.80109 11.2501 3 11.2501H19.19L12.97 5.03007C12.8295 4.88945 12.7507 4.69882 12.7507 4.50007C12.7507 4.30132 12.8295 4.1107 12.97 3.97007Z" fill="#3FFFB2"/>
</svg>
