<svg width="100%" viewBox="0 0 24 24" fill="none" xmlns="http://www.w3.org/2000/svg">
<path fill-rule="evenodd" clip-rule="evenodd" d="M11.0295 3.97007C10.8889 3.82962 10.6983 3.75073 10.4995 3.75073C10.3008 3.75073 10.1101 3.82962 9.96951 3.97007L2.46951 11.4701C2.32906 11.6107 2.25017 11.8013 2.25017 12.0001C2.25017 12.1988 2.32906 12.3894 2.46951 12.5301L9.96951 20.0301C10.0382 20.1038 10.121 20.1629 10.213 20.2039C10.305 20.2448 10.4043 20.2669 10.505 20.2687C10.6057 20.2704 10.7057 20.2519 10.7991 20.2142C10.8925 20.1765 10.9773 20.1203 11.0485 20.0491C11.1198 19.9779 11.1759 19.8931 11.2136 19.7997C11.2514 19.7063 11.2699 19.6063 11.2681 19.5056C11.2663 19.4048 11.2443 19.3055 11.2033 19.2135C11.1623 19.1215 11.1032 19.0387 11.0295 18.9701L4.80951 12.7501H20.9995C21.1984 12.7501 21.3892 12.6711 21.5298 12.5304C21.6705 12.3897 21.7495 12.199 21.7495 12.0001C21.7495 11.8012 21.6705 11.6104 21.5298 11.4697C21.3892 11.3291 21.1984 11.2501 20.9995 11.2501H4.80951L11.0295 5.03007C11.17 4.88945 11.2489 4.69882 11.2489 4.50007C11.2489 4.30132 11.17 4.1107 11.0295 3.97007Z" fill="#3FFFB2"/>
</svg>
