<svg width="100%" viewBox="0 0 33 33" fill="none" xmlns="http://www.w3.org/2000/svg">
<g clip-path="url(#clip0_125_46)">
<path fill-rule="evenodd" clip-rule="evenodd" d="M32.5879 16.8525C32.5879 25.6891 25.4244 32.8525 16.5879 32.8525C7.75133 32.8525 0.587891 25.6891 0.587891 16.8525C0.587891 8.01598 7.75133 0.852539 16.5879 0.852539C25.4244 0.852539 32.5879 8.01598 32.5879 16.8525ZM23.1264 20.4899C23.2473 20.2463 23.3635 20.1348 23.4956 20.1348C23.6866 20.1348 23.8696 20.2989 23.8696 20.6569C23.8696 22.2738 20.9747 27.2552 15.9679 27.2552C11.2508 27.2552 8.1936 23.7173 8.1936 18.3635C8.1936 11.447 12.9855 6.44824 18.3774 6.44824C21.6399 6.44824 23.5847 8.09063 23.5847 10.3251C23.5847 12.6295 21.9185 14.2608 20.4989 14.2608C20.1455 14.2608 19.9673 14.0873 19.9673 13.8008C19.9673 13.563 20.1101 13.2809 20.2891 12.9268C20.5907 12.3305 20.9954 11.5304 20.9954 10.3951C20.9954 8.87046 20.0643 7.91239 18.5398 7.91239C15.2772 7.91239 11.5627 11.7669 11.5627 18.4336C11.5627 22.3693 13.5171 25.2181 16.6729 25.2181C19.4023 25.2181 21.7608 23.2589 23.1264 20.4899Z" fill="black"/>
</g>
<defs>
<clipPath id="clip0_125_46">
<rect width="32" height="32" fill="white" transform="translate(0.587891 0.852539)"/>
</clipPath>
</defs>
</svg>
