<svg width="100%" viewBox="0 0 48 48" fill="none" xmlns="http://www.w3.org/2000/svg">
<path d="M14 10C14 5.58172 17.5817 2 22 2C26.4182 2 30 5.58172 30 10H36C37.1046 10 38 10.8954 38 12V18C42.4182 18 46 21.5818 46 26C46 30.4182 42.4182 34 38 34V40C38 41.1046 37.1046 42 36 42H8C6.89544 42 6 41.1046 6 40V12C6 10.8954 6.89544 10 8 10H14ZM22 6C19.7909 6 18 7.79086 18 10C18 10.4711 18.0806 10.919 18.2271 11.3335C18.4434 11.9456 18.3492 12.6247 17.9744 13.1548C17.5995 13.6849 16.9906 14 16.3414 14H10V38H34V31.6586C34 31.0094 34.3152 30.4006 34.8452 30.0256C35.3754 29.6508 36.0544 29.5566 36.6664 29.773C37.081 29.9194 37.529 30 38 30C40.2092 30 42 28.2092 42 26C42 23.7908 40.2092 22 38 22C37.529 22 37.081 22.0806 36.6664 22.227C36.0544 22.4434 35.3754 22.3492 34.8452 21.9744C34.3152 21.5994 34 20.9906 34 20.3414V14H27.6586C27.0094 14 26.4006 13.6849 26.0256 13.1548C25.6508 12.6247 25.5566 11.9456 25.773 11.3335C25.9194 10.919 26 10.4711 26 10C26 7.79086 24.2092 6 22 6Z" fill="#3FFFB2"/>
</svg>
