<svg width="100%" viewBox="0 0 20 20" fill="none" xmlns="http://www.w3.org/2000/svg">
<path d="M15.3023 12.9462L14.1238 11.7677L15.3023 10.5892C16.9294 8.96208 16.9294 6.32388 15.3023 4.69669C13.6751 3.0695 11.0369 3.0695 9.40969 4.69669L8.23118 5.8752L7.05267 4.69669L8.23118 3.51818C10.5093 1.24012 14.2027 1.24012 16.4808 3.51818C18.7589 5.79623 18.7589 9.48966 16.4808 11.7677L15.3023 12.9462ZM12.9452 15.3033L11.7667 16.4818C9.48869 18.7598 5.7952 18.7598 3.51714 16.4818C1.23908 14.2037 1.23908 10.5102 3.51714 8.23223L4.69565 7.05371L5.87416 8.23223L4.69565 9.41074C3.06846 11.0379 3.06846 13.6761 4.69565 15.3033C6.32283 16.9305 8.96102 16.9305 10.5882 15.3033L11.7667 14.1247L12.9452 15.3033ZM12.3559 6.46446L13.5345 7.64297L7.64193 13.5355L6.46341 12.357L12.3559 6.46446Z" fill="white"/>
</svg>
