<svg width="100%" viewBox="0 0 21 22" fill="none" xmlns="http://www.w3.org/2000/svg">
<path d="M12.0109 6.06784C11.2713 5.74228 10.4464 5.66431 9.65894 5.84553C8.87151 6.02675 8.16366 6.45747 7.64084 7.07352C7.11801 7.68965 6.80811 8.4581 6.75741 9.26457C6.70664 10.071 6.91776 10.8723 7.35929 11.549C7.80074 12.2257 8.44904 12.7418 9.20759 13.0203C9.96614 13.2987 10.7943 13.3248 11.5688 13.0944C12.3433 12.8641 13.0228 12.3898 13.5058 11.7421C13.989 11.0944 14.25 10.308 14.25 9.5C14.25 9.08577 13.9142 8.75 13.5 8.75H11.6496L12.3952 7.05642C12.562 6.67737 12.39 6.23472 12.0109 6.06784Z" fill="white" fill-opacity="0.6"/>
<path fill-rule="evenodd" clip-rule="evenodd" d="M2.25 0.5C1.00736 0.5 0 1.50736 0 2.75C0 3.72967 0.626108 4.5631 1.5 4.87197V14C1.5 15.2427 2.50736 16.25 3.75 16.25H9.75V17.128C8.8761 17.4369 8.25 18.2703 8.25 19.25C8.25 20.4927 9.25733 21.5 10.5 21.5C11.7427 21.5 12.75 20.4927 12.75 19.25C12.75 18.2703 12.1239 17.4369 11.25 17.128V16.25H17.25C18.4927 16.25 19.5 15.2427 19.5 14V4.87197C20.3739 4.5631 21 3.72967 21 2.75C21 1.50736 19.9927 0.5 18.75 0.5H2.25ZM17.25 14.75C17.6642 14.75 18 14.4142 18 14V5H3V14C3 14.4142 3.33579 14.75 3.75 14.75H17.25Z" fill="white"/>
</svg>
