<svg width="100%" viewBox="0 0 25 24" fill="none" xmlns="http://www.w3.org/2000/svg">
<path d="M14.0109 7.06784C13.2713 6.74228 12.4464 6.66431 11.6589 6.84553C10.8715 7.02675 10.1637 7.45747 9.64084 8.07352C9.11801 8.68965 8.80811 9.4581 8.75741 10.2646C8.70664 11.071 8.91776 11.8723 9.35929 12.549C9.80074 13.2257 10.449 13.7418 11.2076 14.0203C11.9661 14.2987 12.7943 14.3248 13.5688 14.0944C14.3433 13.8641 15.0228 13.3898 15.5058 12.7421C15.989 12.0944 16.25 11.308 16.25 10.5C16.25 10.0858 15.9142 9.75 15.5 9.75H13.6496L14.3952 8.05642C14.562 7.67737 14.39 7.23472 14.0109 7.06784Z" fill="white" fill-opacity="0.6"/>
<path fill-rule="evenodd" clip-rule="evenodd" d="M4.25 1.5C3.00736 1.5 2 2.50736 2 3.75C2 4.72967 2.62611 5.5631 3.5 5.87197V15C3.5 16.2427 4.50736 17.25 5.75 17.25H11.75V18.128C10.8761 18.4369 10.25 19.2703 10.25 20.25C10.25 21.4927 11.2573 22.5 12.5 22.5C13.7427 22.5 14.75 21.4927 14.75 20.25C14.75 19.2703 14.1239 18.4369 13.25 18.128V17.25H19.25C20.4927 17.25 21.5 16.2427 21.5 15V5.87197C22.3739 5.5631 23 4.72967 23 3.75C23 2.50736 21.9927 1.5 20.75 1.5H4.25ZM19.25 15.75C19.6642 15.75 20 15.4142 20 15V6H5V15C5 15.4142 5.33579 15.75 5.75 15.75H19.25Z" fill="white"/>
</svg>
