<svg width="100%" viewBox="0 0 25 24" fill="none" xmlns="http://www.w3.org/2000/svg">
<g clip-path="url(#clip0_46_7718)">
<path d="M23 4.5H2C1.6023 4.4996 1.221 4.34144 0.939778 4.06022C0.65856 3.779 0.500397 3.3977 0.5 3L0.5 1.5C0.500397 1.1023 0.65856 0.720997 0.939778 0.439778C1.221 0.15856 1.6023 0.000397108 2 0L23 0C23.3977 0.000397108 23.779 0.15856 24.0602 0.439778C24.3414 0.720997 24.4996 1.1023 24.5 1.5V3C24.4996 3.3977 24.3414 3.779 24.0602 4.06022C23.779 4.34144 23.3977 4.4996 23 4.5ZM2 1.5V3H23.0011L23 1.5H2Z" fill="black"/>
<path d="M20.75 18H4.25C3.65346 17.9993 3.08155 17.7621 2.65973 17.3403C2.23792 16.9185 2.00066 16.3465 2 15.75V3.75C2 3.55109 2.07902 3.36032 2.21967 3.21967C2.36032 3.07902 2.55109 3 2.75 3H22.25C22.4489 3 22.6397 3.07902 22.7803 3.21967C22.921 3.36032 23 3.55109 23 3.75V15.75C22.9993 16.3465 22.7621 16.9185 22.3403 17.3403C21.9185 17.7621 21.3465 17.9993 20.75 18ZM3.5 4.5V15.75C3.50026 15.9488 3.57936 16.1394 3.71995 16.28C3.86055 16.4206 4.05117 16.4997 4.25 16.5H20.75C20.9488 16.4997 21.1394 16.4206 21.28 16.28C21.4206 16.1394 21.4997 15.9488 21.5 15.75V4.5H3.5Z" fill="black"/>
<path d="M12.5 21C12.3011 21 12.1103 20.921 11.9697 20.7803C11.829 20.6397 11.75 20.4489 11.75 20.25V17.25C11.75 17.0511 11.829 16.8603 11.9697 16.7197C12.1103 16.579 12.3011 16.5 12.5 16.5C12.6989 16.5 12.8897 16.579 13.0303 16.7197C13.171 16.8603 13.25 17.0511 13.25 17.25V20.25C13.25 20.4489 13.171 20.6397 13.0303 20.7803C12.8897 20.921 12.6989 21 12.5 21Z" fill="black"/>
<path d="M12.5 24C12.055 24 11.62 23.868 11.25 23.6208C10.88 23.3736 10.5916 23.0222 10.4213 22.611C10.251 22.1999 10.2064 21.7475 10.2932 21.311C10.3801 20.8746 10.5943 20.4737 10.909 20.159C11.2237 19.8443 11.6246 19.6301 12.061 19.5432C12.4975 19.4564 12.9499 19.501 13.361 19.6713C13.7722 19.8416 14.1236 20.13 14.3708 20.5C14.618 20.87 14.75 21.305 14.75 21.75C14.7493 22.3465 14.5121 22.9185 14.0903 23.3403C13.6685 23.7621 13.0965 23.9993 12.5 24ZM12.5 21C12.3517 21 12.2067 21.044 12.0833 21.1264C11.96 21.2088 11.8639 21.3259 11.8071 21.463C11.7503 21.6 11.7355 21.7508 11.7644 21.8963C11.7934 22.0418 11.8648 22.1754 11.9697 22.2803C12.0746 22.3852 12.2082 22.4567 12.3537 22.4856C12.4992 22.5145 12.65 22.4997 12.787 22.4429C12.9241 22.3861 13.0412 22.29 13.1236 22.1667C13.206 22.0433 13.25 21.8983 13.25 21.75C13.2497 21.5512 13.1706 21.3606 13.03 21.22C12.8894 21.0794 12.6988 21.0003 12.5 21Z" fill="black"/>
<path d="M11.4029 11.3401C11.0502 11.3391 10.7122 11.1984 10.463 10.9488C10.2138 10.6992 10.0736 10.361 10.0732 10.0082V7.24231C10.0732 7.01551 10.1312 6.79246 10.2416 6.59435C10.352 6.39624 10.5112 6.22965 10.7042 6.11039C10.8971 5.99114 11.1173 5.92318 11.3439 5.91297C11.5704 5.90276 11.7959 5.95064 11.9987 6.05206L14.7651 7.43491C14.9861 7.54547 15.1719 7.71536 15.3018 7.92557C15.4317 8.13578 15.5005 8.37799 15.5005 8.62509C15.5005 8.87219 15.4317 9.1144 15.3018 9.32461C15.1719 9.53482 14.9861 9.70471 14.7651 9.81526L11.9991 11.1981C11.8141 11.2911 11.61 11.3397 11.4029 11.3401ZM11.5732 7.51689V9.73389L13.7906 8.62509L11.5732 7.51689Z" fill="black" fill-opacity="0.8"/>
<path d="M19.25 14.25H5.75C5.55109 14.25 5.36032 14.171 5.21967 14.0303C5.07902 13.8897 5 13.6989 5 13.5C5 13.3011 5.07902 13.1103 5.21967 12.9697C5.36032 12.829 5.55109 12.75 5.75 12.75H19.25C19.4489 12.75 19.6397 12.829 19.7803 12.9697C19.921 13.1103 20 13.3011 20 13.5C20 13.6989 19.921 13.8897 19.7803 14.0303C19.6397 14.171 19.4489 14.25 19.25 14.25Z" fill="black" fill-opacity="0.4"/>
<path d="M7.25 15C7.05109 15 6.86032 14.921 6.71967 14.7803C6.57902 14.6397 6.5 14.4489 6.5 14.25V12.75C6.5 12.5511 6.57902 12.3603 6.71967 12.2197C6.86032 12.079 7.05109 12 7.25 12C7.44891 12 7.63968 12.079 7.78033 12.2197C7.92098 12.3603 8 12.5511 8 12.75V14.25C8 14.4489 7.92098 14.6397 7.78033 14.7803C7.63968 14.921 7.44891 15 7.25 15Z" fill="black"/>
</g>
<defs>
<clipPath id="clip0_46_7718">
<rect width="24" height="24" fill="white" transform="translate(0.5)"/>
</clipPath>
</defs>
</svg>
