<svg width="100%" viewBox="0 0 20 20" fill="none" xmlns="http://www.w3.org/2000/svg">
<path d="M12.8353 17.5V11.6953H14.7789L15.0698 9.43875H12.8353V7.99804C12.8353 7.3447 13.0167 6.89945 13.9536 6.89945L15.1486 6.89889V4.88063C14.9418 4.85318 14.2326 4.79172 13.4073 4.79172C11.6844 4.79172 10.505 5.84332 10.505 7.7746V9.43875H8.55642V11.6953H10.505V17.5H3.33333C2.8731 17.5 2.5 17.1269 2.5 16.6667V3.33333C2.5 2.8731 2.8731 2.5 3.33333 2.5H16.6667C17.1269 2.5 17.5 2.8731 17.5 3.33333V16.6667C17.5 17.1269 17.1269 17.5 16.6667 17.5H12.8353Z" fill="white"/>
</svg>
