<svg width="100%" viewBox="0 0 33 33" fill="none" xmlns="http://www.w3.org/2000/svg">
<path fill-rule="evenodd" clip-rule="evenodd" d="M15.8993 4.49076H12.7527C11.0148 4.49076 9.60599 5.89957 9.60599 7.63742C9.60599 9.37528 11.0148 10.7841 12.7527 10.7841H15.8993V4.49076ZM15.8993 2.35742H18.0327H21.1793C24.0955 2.35742 26.4592 4.72135 26.4592 7.63742C26.4592 9.35825 25.6362 10.8868 24.3619 11.8508C25.6362 12.8147 26.4592 14.3433 26.4592 16.0641C26.4592 18.9802 24.0955 21.3441 21.1793 21.3441C20.0003 21.3441 18.9114 20.9576 18.0327 20.3045V21.3441V24.4908C18.0327 27.4068 15.6687 29.7708 12.7527 29.7708C9.83658 29.7708 7.47266 27.4068 7.47266 24.4908C7.47266 22.7698 8.29587 21.2414 9.56998 20.2774C8.29587 19.3135 7.47266 17.7849 7.47266 16.0641C7.47266 14.3433 8.29589 12.8147 9.57002 11.8508C8.29589 10.8868 7.47266 9.35825 7.47266 7.63742C7.47266 4.72135 9.83658 2.35742 12.7527 2.35742H15.8993ZM18.0327 4.49076V10.7841H21.1793C22.9172 10.7841 24.3259 9.37528 24.3259 7.63742C24.3259 5.89957 22.9172 4.49076 21.1793 4.49076H18.0327ZM12.7527 19.2107H15.8993V16.0722V16.0641V16.056V12.9174H12.7527C11.0148 12.9174 9.60599 14.3263 9.60599 16.0641C9.60599 17.7978 11.0081 19.204 12.7402 19.2108L12.7527 19.2107ZM9.60599 24.4908C9.60599 22.757 11.0081 21.3508 12.7402 21.3441L12.7527 21.3441H15.8993V24.4908C15.8993 26.2286 14.4905 27.6374 12.7527 27.6374C11.0148 27.6374 9.60599 26.2286 9.60599 24.4908ZM18.0327 16.0578C18.036 14.3229 19.4436 12.9174 21.1793 12.9174C22.9172 12.9174 24.3259 14.3263 24.3259 16.0641C24.3259 17.802 22.9172 19.2108 21.1793 19.2108C19.4436 19.2108 18.036 17.8054 18.0327 16.0704V16.0578Z" fill="white"/>
</svg>
