<svg width="100%" viewBox="0 0 25 24" fill="none" xmlns="http://www.w3.org/2000/svg">
<g clip-path="url(#clip0_46_8503)">
<path d="M18.3604 12.615L14.1904 20.725L23.4704 10.235L18.3604 12.615Z" fill="white"/>
<path d="M7.52539 12.7051L12.5004 22.3851L17.4754 12.7051H7.52539Z" fill="white" fill-opacity="0.8"/>
<path d="M18.2298 11.85L24.2498 9.05002L19.2248 4.77002L15.5898 7.45502L18.2298 11.85Z" fill="white" fill-opacity="0.6"/>
<path d="M10.1152 7.7251L7.5752 11.9601H17.4252L14.8852 7.7251H10.1152Z" fill="white"/>
<path d="M1.53027 10.235L10.8103 20.725L6.64527 12.615L1.53027 10.235Z" fill="white"/>
<path d="M14.9745 6.98004L18.1045 4.67004H6.89453L10.0295 6.98004H14.9745Z" fill="white" fill-opacity="0.4"/>
<path d="M9.41 7.45502L5.775 4.77002L0.75 9.05002L6.77 11.85L9.41 7.45502Z" fill="white"/>
</g>
<defs>
<clipPath id="clip0_46_8503">
<rect width="24" height="24" fill="white" transform="translate(0.5)"/>
</clipPath>
</defs>
</svg>
