<svg width="100%" viewBox="0 0 24 24" fill="none" xmlns="http://www.w3.org/2000/svg">
<g clip-path="url(#clip0_46_8543)">
<path d="M4.66211 4.60938H6.63148V6.5787H4.66211V4.60938Z" fill="white" fill-opacity="0.4"/>
<path d="M5.66421 0.00634766C2.54472 0.00634766 0.00683594 2.54423 0.00683594 5.66367C0.00683594 8.78311 2.54472 11.321 5.66421 11.321C8.78369 11.321 11.3216 8.78315 11.3216 5.66367C11.3216 2.54419 8.78369 0.00634766 5.66421 0.00634766ZM8.0389 7.98565H3.2558V3.2026H8.0389V7.98565Z" fill="white" fill-opacity="0.6"/>
<path d="M18.3426 4.8418L17.5918 6.04443H19.0934L18.3426 4.8418Z" fill="white" fill-opacity="0.8"/>
<path d="M18.3429 11.321C21.4624 11.321 24.0002 8.78315 24.0002 5.66367C24.0002 2.54419 21.4624 0.00634766 18.3429 0.00634766C15.2234 0.00634766 12.6855 2.54423 12.6855 5.66372C12.6855 8.7832 15.2234 11.321 18.3429 11.321ZM15.0553 7.45118L18.3429 2.18506L21.6305 7.45118H15.0553Z" fill="white" fill-opacity="0.8"/>
<path d="M18.3429 12.679C15.2234 12.679 12.6855 15.2168 12.6855 18.3363C12.6855 21.4558 15.2234 23.9937 18.3429 23.9937C21.4624 23.9937 24.0002 21.4558 24.0002 18.3363C24.0002 15.2168 21.4624 12.679 18.3429 12.679ZM20.7729 19.8008L19.7782 20.7956L18.3298 19.3473L16.8814 20.7956L15.8866 19.8008L17.335 18.3525L15.8866 16.9041L16.8814 15.9093L18.3298 17.3577L19.7782 15.9093L20.7729 16.9041L19.3246 18.3525L20.7729 19.8008Z" fill="white"/>
<path d="M5.67577 19.4741C6.30409 19.4741 6.81345 18.9647 6.81345 18.3364C6.81345 17.7081 6.30409 17.1987 5.67577 17.1987C5.04744 17.1987 4.53809 17.7081 4.53809 18.3364C4.53809 18.9647 5.04744 19.4741 5.67577 19.4741Z" fill="white" fill-opacity="0.8"/>
<path d="M5.65737 12.679C2.53789 12.679 0 15.2168 0 18.3363C0 21.4558 2.53789 23.9937 5.65737 23.9937C8.77685 23.9937 11.3147 21.4558 11.3147 18.3363C11.3147 15.2168 8.77681 12.679 5.65737 12.679ZM5.67543 20.8809C4.27236 20.8809 3.13088 19.7394 3.13088 18.3363C3.13088 16.9333 4.27236 15.7918 5.67543 15.7918C7.07849 15.7918 8.21997 16.9333 8.21997 18.3363C8.21997 19.7394 7.07849 20.8809 5.67543 20.8809Z" fill="white" fill-opacity="0.8"/>
</g>
<defs>
<clipPath id="clip0_46_8543">
<rect width="24" height="24" fill="white"/>
</clipPath>
</defs>
</svg>
