<svg width="100%" viewBox="0 0 25 24" fill="none" xmlns="http://www.w3.org/2000/svg">
<path d="M17.8027 9.61875C17.8027 9.61875 13.0852 9.61875 13.0627 9.61875V8.80125C13.0627 8.29303 12.8608 7.80562 12.5014 7.44626C12.1421 7.08689 11.6547 6.885 11.1464 6.885H10.2502C10.0502 6.87121 9.86296 6.78205 9.7262 6.63553C9.58944 6.48901 9.51338 6.29605 9.51338 6.09562C9.51338 5.8952 9.58944 5.70224 9.7262 5.55572C9.86296 5.4092 10.0502 5.32004 10.2502 5.30625H14.2964C14.5491 5.30527 14.799 5.25453 15.0321 5.15695C15.2651 5.05936 15.4766 4.91683 15.6545 4.7375C15.8325 4.55816 15.9734 4.34554 16.0691 4.11176C16.1649 3.87798 16.2137 3.62763 16.2127 3.375C16.2127 3.22582 16.1534 3.08274 16.0479 2.97725C15.9424 2.87176 15.7994 2.8125 15.6502 2.8125C15.501 2.8125 15.3579 2.87176 15.2524 2.97725C15.147 3.08274 15.0877 3.22582 15.0877 3.375C15.0867 3.58455 15.003 3.78523 14.8548 3.93341C14.7067 4.08158 14.506 4.16526 14.2964 4.16625H10.2502C7.72269 4.245 7.71894 7.91625 10.2502 7.995H11.1277C11.3375 7.995 11.5388 8.07836 11.6872 8.22675C11.8356 8.37514 11.9189 8.5764 11.9189 8.78625V9.6C11.8927 9.6 7.20519 9.6 7.17894 9.6C5.64985 9.61287 4.18794 10.2301 3.1123 11.317C2.03667 12.4039 1.43466 13.8721 1.43769 15.4012C1.40019 20.1337 6.98769 22.9013 10.7189 20.0025H14.2814C18.0314 22.9088 23.6002 20.1337 23.5627 15.4012C23.5607 13.8721 22.954 12.4059 21.8748 11.3225C20.7957 10.2392 19.3318 9.62667 17.8027 9.61875ZM7.85019 15.9938H6.87519V16.9838C6.87519 17.1329 6.81592 17.276 6.71043 17.3815C6.60495 17.487 6.46187 17.5463 6.31269 17.5463C6.1635 17.5463 6.02043 17.487 5.91494 17.3815C5.80945 17.276 5.75019 17.1329 5.75019 16.9838V15.99H4.74519C4.596 15.99 4.45293 15.9307 4.34744 15.8252C4.24195 15.7198 4.18269 15.5767 4.18269 15.4275C4.18269 15.2783 4.24195 15.1352 4.34744 15.0298C4.45293 14.9243 4.596 14.865 4.74519 14.865H5.75019V13.875C5.75019 13.7258 5.80945 13.5827 5.91494 13.4773C6.02043 13.3718 6.1635 13.3125 6.31269 13.3125C6.46187 13.3125 6.60495 13.3718 6.71043 13.4773C6.81592 13.5827 6.87519 13.7258 6.87519 13.875V14.865H7.85019C7.99937 14.865 8.14245 14.9243 8.24794 15.0298C8.35342 15.1352 8.41269 15.2783 8.41269 15.4275C8.41269 15.5767 8.35342 15.7198 8.24794 15.8252C8.14245 15.9307 7.99937 15.99 7.85019 15.99V15.9938ZM15.6502 16.2188C15.4943 16.2195 15.3417 16.1739 15.2117 16.0879C15.0817 16.0018 14.9801 15.8791 14.92 15.7352C14.8598 15.5914 14.8437 15.4329 14.8736 15.2799C14.9036 15.1269 14.9783 14.9863 15.0883 14.8757C15.1982 14.7652 15.3386 14.6899 15.4914 14.6592C15.6443 14.6285 15.8028 14.6439 15.9469 14.7033C16.091 14.7628 16.2143 14.8638 16.301 14.9934C16.3877 15.1229 16.4339 15.2753 16.4339 15.4313C16.433 15.6388 16.3501 15.8376 16.2033 15.9844C16.0565 16.1311 15.8577 16.214 15.6502 16.215V16.2188ZM17.7014 18.2662C17.5463 18.264 17.3954 18.2161 17.2674 18.1284C17.1395 18.0407 17.0403 17.9171 16.9823 17.7733C16.9243 17.6294 16.9101 17.4716 16.9414 17.3197C16.9728 17.1678 17.0483 17.0285 17.1585 16.9194C17.2687 16.8102 17.4087 16.736 17.5609 16.7061C17.7131 16.6762 17.8707 16.6919 18.014 16.7513C18.1573 16.8106 18.2799 16.9109 18.3664 17.0397C18.4529 17.1685 18.4994 17.3199 18.5002 17.475C18.5002 17.5794 18.4795 17.6827 18.4392 17.779C18.3989 17.8753 18.3399 17.9626 18.2656 18.0359C18.1912 18.1091 18.1031 18.1669 18.0063 18.2058C17.9094 18.2447 17.8058 18.264 17.7014 18.2625V18.2662ZM17.7014 14.1675C17.5463 14.1653 17.3954 14.1173 17.2674 14.0296C17.1395 13.9419 17.0403 13.8184 16.9823 13.6745C16.9243 13.5307 16.9101 13.3729 16.9414 13.221C16.9728 13.069 17.0483 12.9298 17.1585 12.8206C17.2687 12.7115 17.4087 12.6373 17.5609 12.6074C17.7131 12.5775 17.8707 12.5932 18.014 12.6525C18.1573 12.7119 18.2799 12.8122 18.3664 12.941C18.4529 13.0697 18.4994 13.2211 18.5002 13.3762C18.5002 13.4806 18.4795 13.584 18.4392 13.6802C18.3989 13.7765 18.3399 13.8638 18.2656 13.9371C18.1912 14.0104 18.1031 14.0682 18.0063 14.1071C17.9094 14.146 17.8058 14.1652 17.7014 14.1637V14.1675ZM19.7452 16.2188C19.5893 16.2195 19.4367 16.1739 19.3067 16.0879C19.1767 16.0018 19.0751 15.8791 19.015 15.7352C18.9548 15.5914 18.9387 15.4329 18.9686 15.2799C18.9986 15.1269 19.0733 14.9863 19.1833 14.8757C19.2932 14.7652 19.4336 14.6899 19.5864 14.6592C19.7393 14.6285 19.8978 14.6439 20.0419 14.7033C20.186 14.7628 20.3093 14.8638 20.396 14.9934C20.4827 15.1229 20.5289 15.2753 20.5289 15.4313C20.528 15.6388 20.4451 15.8376 20.2983 15.9844C20.1515 16.1311 19.9527 16.214 19.7452 16.215V16.2188Z" fill="white"/>
</svg>
