<svg width="100%" viewBox="0 0 25 24" fill="none" xmlns="http://www.w3.org/2000/svg">
<path d="M12.5 1.25C11.9881 1.25145 11.4769 1.2882 10.97 1.36C10.7734 1.38997 10.5964 1.4957 10.4768 1.65456C10.3572 1.81342 10.3045 2.01279 10.33 2.21C10.3589 2.38825 10.4502 2.55043 10.5875 2.66765C10.7249 2.78486 10.8994 2.84949 11.08 2.85C11.1136 2.85164 11.1473 2.84827 11.18 2.84C11.6175 2.78017 12.0585 2.75011 12.5 2.75C12.6989 2.75 12.8897 2.67098 13.0303 2.53033C13.171 2.38968 13.25 2.19891 13.25 2C13.25 1.80109 13.171 1.61032 13.0303 1.46967C12.8897 1.32902 12.6989 1.25 12.5 1.25ZM8.89 2.64C8.84814 2.55056 8.78902 2.47028 8.71605 2.40374C8.64308 2.33721 8.55769 2.28574 8.46478 2.25229C8.37186 2.21885 8.27326 2.20408 8.17463 2.20883C8.07599 2.21358 7.97927 2.23777 7.89 2.28C7.24543 2.58974 6.63254 2.96149 6.06 3.39C5.90087 3.50935 5.79567 3.68702 5.76754 3.88393C5.73941 4.08085 5.79065 4.28087 5.91 4.44C5.97851 4.53458 6.06882 4.61123 6.17327 4.66345C6.27773 4.71568 6.39324 4.74194 6.51 4.74C6.67216 4.73929 6.82985 4.68673 6.96 4.59C7.45161 4.21837 7.98123 3.89993 8.54 3.64C8.71849 3.55323 8.85545 3.39942 8.92101 3.2121C8.98657 3.02478 8.97542 2.81914 8.89 2.64ZM4.85 5.51C4.68728 5.3961 4.48657 5.35013 4.2905 5.38188C4.09443 5.41362 3.91846 5.52057 3.8 5.68C3.38298 6.26156 3.0214 6.88094 2.72 7.53C2.63729 7.71178 2.62977 7.91889 2.69907 8.1062C2.76837 8.2935 2.90889 8.44583 3.09 8.53C3.18816 8.57217 3.29325 8.5959 3.4 8.6C3.54371 8.60006 3.68437 8.55855 3.80502 8.48048C3.92567 8.40241 4.02117 8.29111 4.08 8.16C4.33854 7.59631 4.65348 7.06025 5.02 6.56C5.13391 6.39728 5.17987 6.19656 5.14813 6.00049C5.11638 5.80443 5.00943 5.62846 4.85 5.51ZM3.33 10.81C3.3552 10.6124 3.30087 10.4129 3.17897 10.2554C3.05707 10.0979 2.87759 9.9952 2.68 9.97C2.48242 9.94481 2.28291 9.99913 2.12538 10.121C1.96785 10.2429 1.8652 10.4224 1.84 10.62C1.77983 11.0775 1.74977 11.5385 1.75 12C1.75 12.26 1.76 12.51 1.78 12.77C1.79176 12.9578 1.87501 13.134 2.01264 13.2623C2.15027 13.3907 2.33183 13.4614 2.52 13.46H2.58C2.77739 13.4449 2.96077 13.3523 3.09007 13.2024C3.21937 13.0525 3.28406 12.8575 3.27 12.66C3.26 12.44 3.25 12.22 3.25 12C3.25142 11.602 3.27814 11.2046 3.33 10.81ZM4.72 17C4.38311 16.4844 4.10155 15.9347 3.88 15.36C3.80839 15.1743 3.66597 15.0247 3.48406 14.9441C3.30215 14.8635 3.09565 14.8584 2.91 14.93C2.72435 15.0016 2.57475 15.144 2.49411 15.3259C2.41347 15.5079 2.40839 15.7143 2.48 15.9C2.74013 16.5687 3.06853 17.2087 3.46 17.81C3.52724 17.9165 3.62018 18.0043 3.73027 18.0655C3.84036 18.1267 3.96407 18.1592 4.09 18.16C4.23225 18.1603 4.37143 18.1186 4.49 18.04C4.6574 17.9317 4.77541 17.7619 4.81846 17.5672C4.86151 17.3725 4.82613 17.1688 4.72 17ZM8.07 20.12C7.52911 19.8211 7.01693 19.473 6.54 19.08C6.38883 18.9527 6.19327 18.8907 5.99636 18.9075C5.79945 18.9244 5.61731 19.0188 5.49 19.17C5.3627 19.3212 5.30066 19.5167 5.31754 19.7136C5.33442 19.9106 5.42883 20.0927 5.58 20.22C6.12836 20.684 6.72124 21.0927 7.35 21.44C7.43602 21.4866 7.53037 21.5158 7.62768 21.526C7.72499 21.5362 7.82335 21.527 7.91714 21.4992C8.01092 21.4713 8.09831 21.4253 8.17429 21.3636C8.25028 21.302 8.31338 21.226 8.36 21.14C8.45595 20.9661 8.47931 20.7613 8.425 20.5703C8.37068 20.3793 8.24309 20.2174 8.07 20.12ZM12.5 21.25C11.8822 21.2506 11.2659 21.1903 10.66 21.07C10.5635 21.051 10.4642 21.0511 10.3677 21.0705C10.2712 21.0898 10.1795 21.128 10.0978 21.1827C10.0161 21.2375 9.94597 21.3079 9.89144 21.3898C9.83691 21.4717 9.79904 21.5635 9.78 21.66C9.76096 21.7565 9.76112 21.8559 9.78046 21.9523C9.79981 22.0488 9.83796 22.1405 9.89275 22.2222C9.94753 22.3039 10.0179 22.374 10.0998 22.4286C10.1817 22.4831 10.2735 22.521 10.37 22.54C11.0713 22.6806 11.7848 22.751 12.5 22.75C12.6989 22.75 12.8897 22.671 13.0303 22.5303C13.171 22.3897 13.25 22.1989 13.25 22C13.25 21.8011 13.171 21.6103 13.0303 21.4697C12.8897 21.329 12.6989 21.25 12.5 21.25Z" fill="white" fill-opacity="0.6"/>
<path d="M16.3 10.576L12.017 7.51896C11.7554 7.33212 11.4473 7.22097 11.1266 7.1977C10.806 7.17444 10.4851 7.23996 10.1992 7.38708C9.91334 7.53421 9.67352 7.75724 9.50608 8.0317C9.33863 8.30617 9.25003 8.62145 9.25001 8.94296V15.057C9.24918 15.3788 9.33752 15.6945 9.50521 15.9692C9.67289 16.2438 9.91339 16.4667 10.2 16.613C10.4857 16.7608 10.8068 16.8267 11.1276 16.8034C11.4485 16.7801 11.7566 16.6685 12.018 16.481L16.3 13.424C16.5267 13.2621 16.7114 13.0484 16.8388 12.8007C16.9663 12.553 17.0328 12.2785 17.0328 12C17.0328 11.7214 16.9663 11.4469 16.8388 11.1992C16.7114 10.9515 16.5267 10.7379 16.3 10.576Z" fill="white"/>
<path d="M12.5 22.75C12.3011 22.75 12.1103 22.671 11.9697 22.5303C11.829 22.3897 11.75 22.1989 11.75 22C11.75 21.8011 11.829 21.6103 11.9697 21.4697C12.1103 21.329 12.3011 21.25 12.5 21.25C14.9533 21.25 17.306 20.2754 19.0407 18.5407C20.7754 16.806 21.75 14.4533 21.75 12C21.75 9.54675 20.7754 7.19397 19.0407 5.45926C17.306 3.72455 14.9533 2.75 12.5 2.75C12.3011 2.75 12.1103 2.67098 11.9697 2.53033C11.829 2.38968 11.75 2.19891 11.75 2C11.75 1.80109 11.829 1.61032 11.9697 1.46967C12.1103 1.32902 12.3011 1.25 12.5 1.25C15.3511 1.25 18.0854 2.38259 20.1014 4.3986C22.1174 6.41462 23.25 9.14892 23.25 12C23.25 14.8511 22.1174 17.5854 20.1014 19.6014C18.0854 21.6174 15.3511 22.75 12.5 22.75Z" fill="white"/>
</svg>
