<svg width="100%" viewBox="0 0 25 24" fill="none" xmlns="http://www.w3.org/2000/svg">
<path d="M17.5401 10.1512C14.1163 10.1512 11.3301 12.9337 11.3301 16.3575C11.3301 19.7812 14.1163 22.5675 17.5401 22.5675C18.2901 22.5675 19.0063 22.4325 19.6701 22.1887C19.6738 22.1887 19.6813 22.185 19.6851 22.185C19.6888 22.1812 19.6963 22.1812 19.7001 22.1775C21.0313 21.6825 22.1488 20.745 22.8688 19.5412C23.4276 18.6075 23.7501 17.52 23.7501 16.3575C23.7501 12.9337 20.9638 10.1512 17.5401 10.1512ZM17.5401 21.8175C14.5288 21.8175 12.0801 19.3687 12.0801 16.3575C12.0801 13.4775 14.3301 11.1075 17.1651 10.9162V16.3575C17.1651 16.3912 17.1688 16.4212 17.1801 16.455C17.1801 16.4662 17.1838 16.4775 17.1876 16.4887L17.1951 16.5037L19.0738 21.6C18.5863 21.7425 18.0726 21.8175 17.5401 21.8175ZM19.7751 21.3412L18.2601 17.2237L22.0213 19.47C21.4626 20.28 20.6826 20.9287 19.7751 21.3412Z" fill="white" fill-opacity="0.8"/>
<path d="M11.6525 11.9437C11.6562 11.9437 11.66 11.94 11.66 11.94C11.6701 11.931 11.6795 11.9205 11.6892 11.9107C11.6964 11.9047 11.7054 11.9021 11.7125 11.8954C11.7196 11.8886 11.7215 11.8796 11.7279 11.8725C11.7376 11.8624 11.7474 11.853 11.7579 11.8425C11.7579 11.8425 11.7616 11.8387 11.7616 11.835C12.8416 10.7325 13.5054 9.22125 13.5054 7.56C13.5054 4.18125 10.7566 1.4325 7.37787 1.4325C3.99912 1.4325 1.25 4.18125 1.25 7.56C1.25 10.9387 3.99875 13.6912 7.3775 13.6912C9.03875 13.6912 10.55 13.0275 11.6525 11.9437ZM11.4316 11.0846L9.98787 9.64087C10.385 9.14962 10.6287 8.56124 10.6962 7.93537H12.74C12.6575 9.13499 12.1812 10.2296 11.4316 11.0846ZM7.3775 4.9725C8.07125 4.9725 8.72 5.2425 9.2075 5.73375C9.47375 5.99625 9.67625 6.3075 9.8075 6.66C9.9125 6.94875 9.96875 7.2525 9.96875 7.56C9.96875 8.25375 9.69875 8.9025 9.2075 9.39C9.2 9.3975 9.1925 9.405 9.18875 9.4125C8.70125 9.88875 8.06 10.1512 7.3775 10.1512C5.9525 10.1512 4.79 8.98875 4.79 7.56C4.79 7.245 4.84625 6.93375 4.9625 6.6375C5.34125 5.64 6.3125 4.9725 7.3775 4.9725ZM2 7.56C2 4.72125 4.2125 2.38875 7.0025 2.1975V4.24875C5.78 4.38375 4.70375 5.20125 4.26125 6.3675C4.115 6.75 4.04 7.15125 4.04 7.56C4.04 9.40125 5.53625 10.9012 7.3775 10.9012C8.1425 10.9012 8.86625 10.6462 9.455 10.17C9.455 10.17 9.45575 10.1696 9.45613 10.1692L10.9051 11.6186C9.96012 12.4429 8.72713 12.9412 7.3775 12.9412C4.41125 12.9412 2 10.5262 2 7.56Z" fill="white"/>
<path d="M6.65352 14.9325C4.78227 14.9325 3.25977 16.455 3.25977 18.33C3.25977 20.205 4.78227 21.7237 6.65352 21.7237C8.52477 21.7237 10.051 20.2012 10.051 18.33C10.051 16.4587 8.52852 14.9325 6.65352 14.9325ZM6.65352 20.9737C5.19477 20.9737 4.00977 19.7887 4.00977 18.33C4.00977 16.9987 4.99602 15.8925 6.27852 15.7125V18.33C6.27852 18.5362 6.44727 18.705 6.65352 18.705H9.27102C9.09102 19.9875 7.98477 20.9737 6.65352 20.9737Z" fill="white"/>
<path d="M21.264 2.46936H15.8782C15.7785 2.46936 15.6832 2.50874 15.6131 2.57924L13.86 4.33199C13.7133 4.47861 13.7133 4.71561 13.86 4.86224C13.9331 4.93536 14.0291 4.97211 14.1251 4.97211C14.2211 4.97211 14.3171 4.93536 14.3902 4.86224L16.0335 3.21936H21.264C21.4713 3.21936 21.639 3.05136 21.639 2.84436C21.639 2.63736 21.4713 2.46936 21.264 2.46936Z" fill="white"/>
<path d="M21.2642 3.9165H17.3965C17.1891 3.9165 17.0215 4.0845 17.0215 4.2915C17.0215 4.4985 17.1891 4.6665 17.3965 4.6665H21.2642C21.4716 4.6665 21.6392 4.4985 21.6392 4.2915C21.6392 4.0845 21.4716 3.9165 21.2642 3.9165Z" fill="white"/>
<path d="M21.2642 5.30554H17.3965C17.1891 5.30554 17.0215 5.47354 17.0215 5.68054C17.0215 5.88754 17.1891 6.05554 17.3965 6.05554H21.2642C21.4716 6.05554 21.6392 5.88754 21.6392 5.68054C21.6392 5.47354 21.4716 5.30554 21.2642 5.30554Z" fill="white"/>
<path d="M21.2637 6.69446H18.3125C18.1051 6.69446 17.9375 6.86246 17.9375 7.06946C17.9375 7.27646 18.1051 7.44446 18.3125 7.44446H21.2637C21.4711 7.44446 21.6387 7.27646 21.6387 7.06946C21.6387 6.86246 21.4711 6.69446 21.2637 6.69446Z" fill="white"/>
</svg>
