<svg width="100%" viewBox="0 0 25 24" fill="none" xmlns="http://www.w3.org/2000/svg">
<path d="M9.5 1.50012H4.25C3.00736 1.50012 2 2.50748 2 3.75012V6.00012C2 7.24276 3.00736 8.25012 4.25 8.25012H6.5L8.85986 10.3903C8.93201 10.4628 9.02832 10.5001 9.125 10.5001H9.13269C9.3418 10.5096 9.51501 10.335 9.51501 10.1251C9.51501 10.0468 9.49084 9.97388 9.44983 9.91382L8.75 8.25012H9.5C10.7426 8.25012 11.75 7.24276 11.75 6.00012V3.75012C11.75 2.50748 10.7426 1.50012 9.5 1.50012Z" fill="white"/>
<path d="M15.5 1.49963H20.75C21.9926 1.49963 23 2.50699 23 3.74963V5.99963C23 7.24227 21.9926 8.24963 20.75 8.24963H18.5L16.1401 10.3898C16.068 10.4623 15.9717 10.4996 15.875 10.4996C15.8724 10.4996 15.8699 10.4996 15.8673 10.4996C15.6582 10.5092 15.485 10.3345 15.485 10.1246C15.485 10.0463 15.5092 9.97339 15.5502 9.91333L16.25 8.24963H15.5C14.2574 8.24963 13.25 7.24227 13.25 5.99963V3.74963C13.25 2.50699 14.2574 1.49963 15.5 1.49963Z" fill="white" fill-opacity="0.6"/>
<path d="M5 18.75C6.24264 18.75 7.25 17.7426 7.25 16.5C7.25 15.2574 6.24264 14.25 5 14.25C3.75736 14.25 2.75 15.2574 2.75 16.5C2.75 17.7426 3.75736 18.75 5 18.75Z" fill="white" fill-opacity="0.4"/>
<path d="M5.75 18.75H4.25C3.00928 18.75 2 19.7593 2 21V21.75C2 22.1642 2.33582 22.5 2.75 22.5H7.25C7.66418 22.5 8 22.1642 8 21.75V21C8 19.7593 6.99072 18.75 5.75 18.75Z" fill="white" fill-opacity="0.4"/>
<path d="M20 18.75C21.2426 18.75 22.25 17.7426 22.25 16.5C22.25 15.2574 21.2426 14.25 20 14.25C18.7574 14.25 17.75 15.2574 17.75 16.5C17.75 17.7426 18.7574 18.75 20 18.75Z" fill="white"/>
<path d="M20.75 18.75H19.25C18.0093 18.75 17 19.7593 17 21V21.75C17 22.1642 17.3358 22.5 17.75 22.5H22.25C22.6642 22.5 23 22.1642 23 21.75V21C23 19.7593 21.9907 18.75 20.75 18.75Z" fill="white"/>
<path d="M14.5303 10.7197C14.2373 10.4268 13.7627 10.4268 13.4697 10.7197C13.1768 11.0127 13.1768 11.4873 13.4697 11.7803L13.6895 12H9.5C9.08582 12 8.75 12.3358 8.75 12.75C8.75 13.1642 9.08582 13.5 9.5 13.5H13.6895L13.4697 13.7197C13.1768 14.0127 13.1768 14.4873 13.4697 14.7803C13.6162 14.9268 13.8081 15 14 15C14.1919 15 14.3838 14.9268 14.5303 14.7803L16.0303 13.2803C16.3232 12.9873 16.3232 12.5127 16.0303 12.2197L14.5303 10.7197Z" fill="white" fill-opacity="0.8"/>
<path d="M15.5 15.75H11.3105L11.5303 15.5303C11.8232 15.2373 11.8232 14.7627 11.5303 14.4697C11.2373 14.1768 10.7627 14.1768 10.4697 14.4697L8.96973 15.9697C8.67676 16.2627 8.67676 16.7373 8.96973 17.0303L10.4697 18.5303C10.6162 18.6768 10.8081 18.75 11 18.75C11.1919 18.75 11.3838 18.6768 11.5303 18.5303C11.8232 18.2373 11.8232 17.7627 11.5303 17.4697L11.3105 17.25H15.5C15.9142 17.25 16.25 16.9142 16.25 16.5C16.25 16.0858 15.9142 15.75 15.5 15.75Z" fill="white"/>
</svg>
