<svg width="100%" viewBox="0 0 27 27" fill="none" xmlns="http://www.w3.org/2000/svg">
<g clip-path="url(#clip0_26_632)">
<path d="M24.8728 2.56667L3.33382 0.944029C2.67297 0.894244 2.09685 1.38964 2.04706 2.05049L0.724906 19.6008C0.675121 20.2616 1.17052 20.8377 1.83137 20.8875L8.7645 21.4098L7.8466 22.9452L6.49761 22.8436C5.83676 22.7938 5.26064 23.2892 5.21086 23.95C5.16107 24.6109 5.65647 25.187 6.31732 25.2368L18.2834 26.1383C18.9443 26.1881 19.5204 25.6927 19.5702 25.0318C19.62 24.3709 19.1245 23.7948 18.4637 23.745L17.1147 23.6434L16.4372 21.9879L23.3703 22.5102C24.0312 22.56 24.6073 22.0646 24.6571 21.4037L25.9792 3.85343C26.029 3.19258 25.5337 2.61646 24.8728 2.56667ZM3.27372 1.74178L24.8127 3.36443C25.033 3.38102 25.1981 3.57308 25.1815 3.79333L24.0096 19.3492L1.67291 17.6665L2.84482 2.11059C2.86141 1.89029 3.05342 1.72519 3.27372 1.74178ZM18.7724 24.9717C18.7558 25.192 18.5638 25.3571 18.3435 25.3405L6.37742 24.439C6.15712 24.4224 5.99201 24.2304 6.00861 24.0101C6.02521 23.7898 6.21726 23.6247 6.43751 23.6413L18.4036 24.5428C18.6239 24.5594 18.789 24.7514 18.7724 24.9717ZM16.2229 23.5762L8.73845 23.0124L9.6564 21.477L15.5453 21.9207L16.2229 23.5762ZM23.4304 21.7124L1.89147 20.0898C1.67117 20.0732 1.50607 19.8811 1.52266 19.6609L1.61281 18.4643L23.9495 20.147L23.8594 21.3436C23.8427 21.5639 23.6507 21.729 23.4304 21.7124Z" fill="white"/>
<path d="M12.0306 10.3154C12.3542 10.5115 12.761 10.5068 13.0801 10.3035L15.5528 8.74721C15.8377 8.56348 16.02 8.2569 16.0455 7.91886C16.071 7.58082 15.9366 7.25039 15.6824 7.02605L13.4708 5.11732C13.1857 4.86852 12.7843 4.80297 12.4349 4.94824C12.065 5.10351 11.8147 5.45465 11.7886 5.85502L11.5274 9.32122C11.4929 9.72124 11.6878 10.1063 12.0306 10.3154ZM12.5863 5.91517C12.5888 5.81523 12.6491 5.72585 12.7408 5.68612C12.7695 5.67367 12.8009 5.66847 12.8321 5.67096C12.8755 5.67456 12.9165 5.69245 12.9487 5.72186L15.161 7.63186C15.2231 7.69046 15.2555 7.77398 15.2491 7.8591C15.2427 7.94426 15.1982 8.02195 15.128 8.07058L12.6535 9.62868C12.5907 9.67227 12.5077 9.67363 12.4435 9.63213C12.3587 9.57911 12.3125 9.48171 12.3251 9.38253L12.5863 5.91517Z" fill="white"/>
<path d="M2.93164 16.5579L2.95955 16.56C3.16934 16.5763 3.3559 16.4273 3.38635 16.2191C3.39253 16.1795 4.00207 12.2261 6.68046 12.4278C9.35288 12.6292 9.37237 16.6304 9.36936 16.6702C9.36847 16.8805 9.53058 17.0556 9.7403 17.0708C9.95009 17.0871 10.1367 16.9381 10.1671 16.7299C10.1733 16.6903 10.7828 12.7369 13.4612 12.9386C16.1336 13.14 16.1511 17.141 16.1501 17.181C16.1494 17.3875 16.306 17.5606 16.5116 17.5805L16.5211 17.5812C16.7236 17.5964 16.9053 17.4574 16.9438 17.2581C16.9512 17.2185 17.6801 13.597 20.1051 13.4628C20.2619 14.25 20.9791 14.7981 21.7798 14.7428C22.5805 14.6875 23.2155 14.0461 23.2627 13.2448C23.3099 12.4435 22.7546 11.732 21.9659 11.5831C21.1772 11.4342 20.4006 11.8944 20.1525 12.6577C18.3321 12.6958 17.2865 14.1478 16.7256 15.3844C16.3455 13.8743 15.4256 12.2844 13.5214 12.1409C11.6659 12.0011 10.5286 13.3595 9.91468 14.7574C9.5171 13.2833 8.59619 11.7699 6.74066 11.6301C4.00841 11.4243 2.83348 14.4646 2.59289 16.1032C2.57725 16.2084 2.6042 16.3156 2.66776 16.401C2.73133 16.4863 2.82631 16.5428 2.93164 16.5579ZM21.7283 12.3581C22.1689 12.3913 22.4991 12.7753 22.4659 13.2159C22.4327 13.6565 22.0487 13.9868 21.6081 13.9536C21.1675 13.9204 20.8372 13.5363 20.8704 13.0957C20.9036 12.6551 21.2877 12.3249 21.7283 12.3581Z" fill="white"/>
</g>
<defs>
<clipPath id="clip0_26_632">
<rect width="24" height="24" fill="white" transform="translate(2.13721 0.853882) rotate(4.30825)"/>
</clipPath>
</defs>
</svg>
