<svg width="100%" viewBox="0 0 25 24" fill="none" xmlns="http://www.w3.org/2000/svg">
<path d="M19.8533 8.96635C21.1208 8.96635 22.1558 7.93135 22.1558 6.65635C22.1558 5.38135 21.1208 4.3501 19.8533 4.3501C18.5858 4.3501 17.5508 5.3851 17.5508 6.65635C17.5508 7.9276 18.582 8.96635 19.8533 8.96635Z" fill="black" fill-opacity="0.8"/>
<path d="M23.7238 15.1088L22.985 11.385C22.82 10.5525 22.085 9.945 21.2337 9.945H15.9988V4.61625H16.3363C17.0112 4.61625 17.5588 4.065 17.5588 3.3825C17.5588 2.7 17.0112 2.15625 16.3363 2.15625H2.4725C1.7975 2.15625 1.25 2.7075 1.25 3.39C1.25 4.0725 1.7975 4.61625 2.4725 4.61625H2.81V15.0225C2.81 15.2325 2.97875 15.3975 3.185 15.3975H9.03125V16.2C8.49875 16.365 8.105 16.86 8.105 17.4525C8.105 18.1763 8.69 18.765 9.40625 18.765C10.1225 18.765 10.7075 18.1763 10.7075 17.4525C10.7075 16.86 10.3138 16.365 9.78125 16.2V15.3975H15.6238C15.8338 15.3975 15.9988 15.2325 15.9988 15.0225V12.4425L17.0112 12.7087L18.1775 20.7113C18.2675 21.3563 18.83 21.8438 19.4788 21.8438H20.225C20.8775 21.8438 21.4363 21.3563 21.53 20.7113L22.1075 16.6838H22.4338C22.8275 16.6838 23.1987 16.5075 23.45 16.2037C23.7013 15.8962 23.8025 15.4988 23.7238 15.1088ZM9.9575 17.4487C9.9575 17.76 9.71 18.0112 9.40625 18.0112C9.1025 18.0112 8.855 17.76 8.855 17.4487C8.855 17.1375 9.1025 16.8862 9.40625 16.8862C9.71 16.8862 9.9575 17.1375 9.9575 17.4487ZM15.2488 14.6475H3.56V4.61625H15.2488V9.945H14.75C14.165 9.945 13.685 10.425 13.685 11.0138C13.685 11.4975 14.0112 11.9212 14.48 12.045L15.2488 12.2475V14.6475Z" fill="black"/>
<path d="M14.251 7.39392C14.2623 7.18767 14.101 7.01142 13.8948 7.00017C13.8423 7.00017 12.5185 6.95142 11.0973 8.51517C10.5273 9.14142 9.83353 9.17517 9.10228 9.20892C8.36353 9.24267 7.52353 9.28392 7.00228 10.0827C6.26728 11.2077 4.87603 11.3577 4.84228 11.3614C4.63603 11.3802 4.48603 11.5639 4.50103 11.7664C4.51978 11.9614 4.68103 12.1077 4.87603 12.1077H4.90978C4.98103 12.1002 6.68728 11.9314 7.62853 10.4914C7.92478 10.0377 8.37478 9.99267 9.13603 9.95892C9.90853 9.92142 10.8723 9.87642 11.6523 9.02142C12.8223 7.73892 13.816 7.75392 13.861 7.75392C14.0673 7.76517 14.2435 7.60392 14.2548 7.39767L14.251 7.39392Z" fill="black" fill-opacity="0.6"/>
</svg>
