<svg width="100%" viewBox="0 0 20 20" fill="none" xmlns="http://www.w3.org/2000/svg">
<path d="M15.2794 15.2825H13.0581V11.8018C13.0581 10.9718 13.0413 9.90375 11.9006 9.90375C10.7425 9.90375 10.5656 10.8069 10.5656 11.7406V15.2825H8.34435V8.125H10.4781V9.10058H10.5068C10.805 8.53808 11.53 7.94437 12.6131 7.94437C14.8638 7.94437 15.28 9.42567 15.28 11.3538L15.2794 15.2825ZM5.83563 7.14562C5.12063 7.14562 4.54625 6.56687 4.54625 5.855C4.54625 5.14375 5.12125 4.56563 5.83563 4.56563C6.54813 4.56563 7.12563 5.14375 7.12563 5.855C7.12563 6.56687 6.5475 7.14562 5.83563 7.14562ZM6.94938 15.2825H4.72188V8.125H6.94938V15.2825ZM16.3906 2.5H3.60687C2.995 2.5 2.5 2.98375 2.5 3.58063V16.4194C2.5 17.0168 2.995 17.5 3.60687 17.5H16.3888C17 17.5 17.5 17.0168 17.5 16.4194V3.58063C17.5 2.98375 17 2.5 16.3888 2.5H16.3906Z" fill="white"/>
</svg>
