<svg width="100%" viewBox="0 0 36 35" fill="none" xmlns="http://www.w3.org/2000/svg">
<path d="M10.1045 5.31155V4.5V2C10.1045 1.88372 10.0583 1.77219 9.97605 1.68997C9.89382 1.60774 9.7823 1.56155 9.66602 1.56155C9.54973 1.56155 9.43821 1.60774 9.35598 1.68997C9.27376 1.77219 9.22757 1.88372 9.22757 2V4.5V5.31155H8.41602H7.99935C7.19055 5.31155 6.66586 5.31328 6.2788 5.36535C5.91524 5.41426 5.79657 5.49382 5.7282 5.56219C5.65984 5.63055 5.58027 5.74922 5.53136 6.11278C5.4947 6.38534 5.48299 6.72614 5.47928 7.18633C5.50874 7.18212 5.53811 7.17804 5.56737 7.17409L10.1045 5.31155ZM10.1045 5.31155H10.916H11.3327C12.1415 5.31155 12.6662 5.31328 13.0532 5.36535C13.4168 5.41426 13.5355 5.49382 13.6038 5.56219C13.6722 5.63055 13.7518 5.74922 13.8007 6.11278C13.8373 6.38527 13.849 6.72597 13.8528 7.18598M10.1045 5.31155L13.8528 7.18598M13.8528 7.18598C13.8226 7.18177 13.7926 7.17772 13.7626 7.17381C12.6338 7.02175 11.2664 7.02177 9.85885 7.02178H9.81602H9.51602H9.47297C8.06479 7.02177 6.69507 7.02175 5.56744 7.17408L13.8528 7.18598Z" fill="white" stroke="white" stroke-width="1.6231"/>
<path d="M32.1871 32.4168V33.2283H32.9987H34.6654C34.7817 33.2283 34.8932 33.2745 34.9754 33.3568C35.0576 33.439 35.1038 33.5505 35.1038 33.6668C35.1038 33.7831 35.0576 33.8946 34.9754 33.9768C34.8932 34.059 34.7817 34.1052 34.6654 34.1052H1.33203C1.21575 34.1052 1.10422 34.059 1.022 33.9768C0.939776 33.8946 0.893581 33.7831 0.893581 33.6668C0.893581 33.5505 0.939776 33.439 1.022 33.3568C1.10422 33.2745 1.21575 33.2283 1.33203 33.2283H2.9987H3.81025V32.4168V17.0001C3.81025 15.4055 3.81197 14.2916 3.92509 13.4508C4.03504 12.6335 4.23668 12.1965 4.54922 11.884C4.86175 11.5714 5.29875 11.3698 6.11607 11.2598C6.95688 11.1467 8.07073 11.145 9.66536 11.145C11.26 11.145 12.3738 11.1467 13.2147 11.2598C14.032 11.3698 14.469 11.5714 14.7815 11.884C15.1273 12.2298 15.3312 12.7215 15.4335 13.6893C14.2772 13.6928 13.1732 13.7139 12.2333 13.839L12.2316 13.8392C10.9596 14.0112 9.50607 14.4284 8.29985 15.6363C7.09354 16.8409 6.67635 18.2945 6.50603 19.5688C6.35378 20.6979 6.3538 22.0658 6.35381 23.474V23.5168V32.4168V33.2283H7.16536H9.66536H10.4769V32.4168V23.6668C10.4769 22.0722 10.4786 20.9583 10.5918 20.1175C10.7017 19.3002 10.9034 18.8632 11.2159 18.5506C11.5284 18.2381 11.9654 18.0365 12.7827 17.9265C13.6235 17.8134 14.7374 17.8117 16.332 17.8117H19.6654C21.26 17.8117 22.3738 17.8134 23.2147 17.9265C24.032 18.0365 24.469 18.2381 24.7815 18.5506C25.094 18.8632 25.2957 19.3002 25.4056 20.1175C25.5188 20.9583 25.5205 22.0722 25.5205 23.6668V32.4168V33.2283H26.332H28.832H29.6436V32.4168V23.5185V23.4762C29.6436 22.0657 29.6436 20.6982 29.4932 19.568L29.4929 19.5664C29.3209 18.2943 28.9038 16.8408 27.6959 15.6346C26.4913 14.4283 25.0376 14.0111 23.7633 13.8408C22.8005 13.711 21.664 13.6919 20.4769 13.6891V9.95346C20.4769 7.74193 20.479 6.1753 20.6476 5.03183C20.8135 3.90638 21.1159 3.38094 21.563 3.07024C22.0095 2.76146 22.6069 2.66289 23.7188 2.90279C24.8485 3.14656 26.3164 3.69483 28.387 4.47163L28.3876 4.47187C29.451 4.8698 30.1861 5.14656 30.7338 5.4246C31.2634 5.69345 31.5458 5.92935 31.7382 6.2072C31.9307 6.48506 32.0522 6.83243 32.118 7.42288C32.186 8.03347 32.1871 8.81865 32.1871 9.95346V32.4168ZM13.2076 20.5424C12.821 20.929 12.6038 21.4534 12.6038 22.0001C12.6038 22.5469 12.821 23.0712 13.2076 23.4579C13.5942 23.8445 14.1186 24.0617 14.6654 24.0617H21.332C21.8788 24.0617 22.4032 23.8445 22.7898 23.4579C23.1764 23.0712 23.3936 22.5469 23.3936 22.0001C23.3936 21.4534 23.1764 20.929 22.7898 20.5424C22.4032 20.1558 21.8788 19.9386 21.332 19.9386H14.6654C14.1186 19.9386 13.5942 20.1558 13.2076 20.5424ZM13.2076 25.5424C12.821 25.929 12.6038 26.4534 12.6038 27.0001C12.6038 27.5469 12.821 28.0712 13.2076 28.4579C13.5942 28.8445 14.1186 29.0617 14.6654 29.0617H21.332C21.8788 29.0617 22.4032 28.8445 22.7898 28.4579C23.1764 28.0712 23.3936 27.5469 23.3936 27.0001C23.3936 26.4534 23.1764 25.929 22.7898 25.5424C22.4032 25.1558 21.8788 24.9386 21.332 24.9386H14.6654C14.1186 24.9386 13.5942 25.1558 13.2076 25.5424Z" fill="white" stroke="white" stroke-width="1.6231"/>
</svg>
