<svg width="100%" viewBox="0 0 40 40" fill="none" xmlns="http://www.w3.org/2000/svg">
<path d="M24.499 37.9169H15.499C7.26562 37.9169 3.76562 34.4002 3.76562 26.1835V18.7002C3.76562 18.0169 4.33229 17.4502 5.01562 17.4502C5.69896 17.4502 6.26562 18.0169 6.26562 18.7002V26.1835C6.26562 33.0002 8.68229 35.4169 15.499 35.4169H24.4823C31.299 35.4169 33.7156 33.0002 33.7156 26.1835V18.7002C33.7156 18.0169 34.2823 17.4502 34.9656 17.4502C35.649 17.4502 36.2156 18.0169 36.2156 18.7002V26.1835C36.2323 34.4002 32.7156 37.9169 24.499 37.9169Z" fill="white"/>
<path d="M19.9984 21.2502C18.165 21.2502 16.4984 20.5335 15.315 19.2168C14.1317 17.9002 13.5817 16.1835 13.765 14.3502L14.8817 3.21683C14.9484 2.5835 15.4817 2.0835 16.1317 2.0835H23.915C24.565 2.0835 25.0984 2.56683 25.165 3.21683L26.2817 14.3502C26.465 16.1835 25.915 17.9002 24.7317 19.2168C23.4984 20.5335 21.8317 21.2502 19.9984 21.2502ZM17.2484 4.5835L16.2484 14.6002C16.1317 15.7168 16.465 16.7668 17.165 17.5335C18.5817 19.1002 21.415 19.1002 22.8317 17.5335C23.5317 16.7502 23.865 15.7002 23.7484 14.6002L22.7484 4.5835H17.2484Z" fill="white"/>
<path d="M30.516 21.2502C27.1327 21.2502 24.116 18.5168 23.766 15.1502L22.5994 3.46683C22.566 3.11683 22.6827 2.76683 22.916 2.50016C23.1494 2.2335 23.4827 2.0835 23.8494 2.0835H28.9327C33.8327 2.0835 36.116 4.1335 36.7994 9.16683L37.266 13.8002C37.466 15.7668 36.866 17.6335 35.5827 19.0502C34.2994 20.4668 32.4994 21.2502 30.516 21.2502ZM25.2327 4.5835L26.266 14.9002C26.4827 16.9835 28.416 18.7502 30.516 18.7502C31.7827 18.7502 32.916 18.2668 33.7327 17.3835C34.5327 16.5002 34.8994 15.3168 34.7827 14.0502L34.316 9.46683C33.7994 5.70016 32.5827 4.5835 28.9327 4.5835H25.2327V4.5835Z" fill="white"/>
<path d="M9.39906 21.2502C7.41573 21.2502 5.61573 20.4668 4.33239 19.0502C3.04906 17.6335 2.44906 15.7668 2.64906 13.8002L3.09906 9.21683C3.79906 4.1335 6.08239 2.0835 10.9824 2.0835H16.0657C16.4157 2.0835 16.7491 2.2335 16.9991 2.50016C17.2491 2.76683 17.3491 3.11683 17.3157 3.46683L16.1491 15.1502C15.7991 18.5168 12.7824 21.2502 9.39906 21.2502ZM10.9824 4.5835C7.33239 4.5835 6.11573 5.6835 5.58239 9.50016L5.13239 14.0502C4.99906 15.3168 5.38239 16.5002 6.18239 17.3835C6.98239 18.2668 8.11573 18.7502 9.39906 18.7502C11.4991 18.7502 13.4491 16.9835 13.6491 14.9002L14.6824 4.5835H10.9824V4.5835Z" fill="white"/>
<path d="M24.1673 37.9168H15.834C15.1507 37.9168 14.584 37.3502 14.584 36.6668V32.5002C14.584 29.0002 16.5007 27.0835 20.0007 27.0835C23.5007 27.0835 25.4173 29.0002 25.4173 32.5002V36.6668C25.4173 37.3502 24.8507 37.9168 24.1673 37.9168ZM17.084 35.4168H22.9173V32.5002C22.9173 30.4002 22.1007 29.5835 20.0007 29.5835C17.9007 29.5835 17.084 30.4002 17.084 32.5002V35.4168Z" fill="white"/>
</svg>
