<svg width="100%" viewBox="0 0 40 40" fill="none" xmlns="http://www.w3.org/2000/svg">
<path d="M10.8689 27.1002C10.5522 27.1002 10.2355 26.9835 9.98555 26.7335C9.50221 26.2502 9.50221 25.4502 9.98555 24.9668L15.0689 19.8835C15.5522 19.4002 16.3522 19.4002 16.8355 19.8835C17.3189 20.3668 17.3189 21.1668 16.8355 21.6502L11.7522 26.7335C11.5022 26.9668 11.1855 27.1002 10.8689 27.1002Z" fill="white"/>
<path d="M16.001 27.15C15.6844 27.15 15.3677 27.0333 15.1177 26.7833L10.0344 21.7C9.55104 21.2166 9.55104 20.4166 10.0344 19.9333C10.5177 19.45 11.3177 19.45 11.801 19.9333L16.8844 25.0166C17.3677 25.5 17.3677 26.3 16.8844 26.7833C16.6344 27.0333 16.3177 27.15 16.001 27.15Z" fill="white"/>
<path d="M22.5661 24.9998C21.6495 24.9998 20.8828 24.2498 20.8828 23.3332C20.8828 22.4165 21.6161 21.6665 22.5328 21.6665H22.5661C23.4828 21.6665 24.2328 22.4165 24.2328 23.3332C24.2328 24.2498 23.4995 24.9998 22.5661 24.9998Z" fill="white"/>
<path d="M29.1345 24.9998C28.2178 24.9998 27.4512 24.2498 27.4512 23.3332C27.4512 22.4165 28.1845 21.6665 29.1012 21.6665H29.1345C30.0512 21.6665 30.8012 22.4165 30.8012 23.3332C30.8012 24.2498 30.0512 24.9998 29.1345 24.9998Z" fill="white"/>
<path d="M25.8327 28.2831C24.916 28.2831 24.166 27.5498 24.166 26.6331V26.5998C24.166 25.6831 24.916 24.9331 25.8327 24.9331C26.7493 24.9331 27.4993 25.6831 27.4993 26.5998C27.4993 27.5164 26.766 28.2831 25.8327 28.2831Z" fill="white"/>
<path d="M25.8327 21.7167C24.916 21.7167 24.166 20.9834 24.166 20.0667V20.0334C24.166 19.1167 24.916 18.3667 25.8327 18.3667C26.7493 18.3667 27.4993 19.1167 27.4993 20.0334C27.4993 20.95 26.766 21.7167 25.8327 21.7167Z" fill="white"/>
<path d="M25.0007 37.9167H15.0007C5.95065 37.9167 2.08398 34.05 2.08398 25V21.6667C2.08398 12.6167 5.95065 8.75 15.0007 8.75H25.0007C34.0506 8.75 37.9173 12.6167 37.9173 21.6667V25C37.9173 34.05 34.0506 37.9167 25.0007 37.9167ZM15.0007 11.25C7.31732 11.25 4.58398 13.9833 4.58398 21.6667V25C4.58398 32.6833 7.31732 35.4167 15.0007 35.4167H25.0007C32.684 35.4167 35.4173 32.6833 35.4173 25V21.6667C35.4173 13.9833 32.684 11.25 25.0007 11.25H15.0007Z" fill="white"/>
<path d="M21.6497 11.2502H19.9831C18.3831 11.2502 17.0664 9.9335 17.0664 8.3335C17.0664 6.7335 18.3664 5.41683 19.9664 5.41683C20.2331 5.41683 20.4164 5.2335 20.4331 5.00016L20.4497 3.31683C20.4664 2.6335 21.0164 2.0835 21.6997 2.0835H21.7164C22.3997 2.10016 22.9664 2.66683 22.9497 3.35016L22.9331 5.0335C22.9164 6.61683 21.5997 7.91683 20.0164 7.91683C19.7497 7.91683 19.5831 8.10016 19.5831 8.3335C19.5831 8.56683 19.7664 8.75016 19.9997 8.75016H21.6664C22.3497 8.75016 22.9164 9.31683 22.9164 10.0002C22.9164 10.6835 22.3331 11.2502 21.6497 11.2502Z" fill="white"/>
</svg>
