<svg width="100%" viewBox="0 0 40 40" fill="none" xmlns="http://www.w3.org/2000/svg">
<path d="M34.1884 32.4998V33.3113H35H37.5C37.6163 33.3113 37.7278 33.3575 37.81 33.4398C37.8923 33.522 37.9384 33.6335 37.9384 33.7498C37.9384 33.8661 37.8923 33.9776 37.81 34.0598C37.7278 34.142 37.6163 34.1882 37.5 34.1882H2.5C2.38371 34.1882 2.27219 34.142 2.18997 34.0598C2.10774 33.9776 2.06155 33.8661 2.06155 33.7498C2.06155 33.6335 2.10774 33.522 2.18997 33.4398C2.27219 33.3575 2.38371 33.3113 2.5 33.3113H5H5.81155V32.4998V18.0545V18.0543C5.81151 17.8207 5.85999 17.5895 5.9539 17.3755C6.04781 17.1616 6.18512 16.9694 6.35713 16.8112L6.35718 16.8113L6.36508 16.8038L18.851 5.01007L18.8594 5.00213L18.8676 4.99395L18.8699 4.99169C19.179 4.71634 19.5786 4.56399 19.993 4.56399C20.405 4.56399 20.8026 4.71469 21.111 4.98719C21.1212 4.99732 21.1316 5.00723 21.1422 5.01691L33.6353 16.8041L33.6352 16.8042L33.6429 16.8112C33.8149 16.9694 33.9522 17.1616 34.0461 17.3755C34.14 17.5895 34.1885 17.8207 34.1884 18.0543V18.0545V32.4998ZM6.95408 17.454L6.68845 17.6955V18.0545V32.4998V33.3113H7.5H15H15.8116V32.4998V24.9998C15.8116 24.552 15.9894 24.1225 16.3061 23.8059C16.6227 23.4892 17.0522 23.3113 17.5 23.3113H22.5C22.9478 23.3113 23.3773 23.4892 23.6939 23.8059C24.0106 24.1225 24.1884 24.552 24.1884 24.9998V32.4998V33.3113H25H32.5016H33.3131V32.4998V18.0513V17.6923L33.0475 17.4508L33.036 17.4404L20.5571 5.65966L19.9999 5.13362L19.4428 5.65977L6.96556 17.4435L6.95408 17.454ZM22.5 33.3113H23.3116V32.4998V24.9998V24.1882H22.5H17.5H16.6884V24.9998V32.4998V33.3113H17.5H22.5Z" fill="black" stroke="white" stroke-width="1.6231"/>
</svg>
