<svg width="100%" viewBox="0 0 25 24" fill="none" xmlns="http://www.w3.org/2000/svg">
<g clip-path="url(#clip0_46_7676)">
<path fill-rule="evenodd" clip-rule="evenodd" d="M0.5 15.4688C0.5 15.2099 0.709867 15 0.96875 15H24.0313C24.2901 15 24.5 15.2099 24.5 15.4688C24.5 15.7276 24.2901 15.9375 24.0313 15.9375H0.96875C0.709867 15.9375 0.5 15.7276 0.5 15.4688Z" fill="black"/>
<path fill-rule="evenodd" clip-rule="evenodd" d="M0.5 0.46875C0.5 0.209867 0.709867 0 0.96875 0H24.0313C24.2901 0 24.5 0.209867 24.5 0.46875C24.5 0.727634 24.2901 0.937501 24.0313 0.937501H0.96875C0.709867 0.937501 0.5 0.727634 0.5 0.46875Z" fill="black"/>
<path fill-rule="evenodd" clip-rule="evenodd" d="M1.90625 0.213989C2.16513 0.213989 2.375 0.423856 2.375 0.68274V15.2546C2.375 15.5135 2.16513 15.7233 1.90625 15.7233C1.64737 15.7233 1.4375 15.5135 1.4375 15.2546V0.68274C1.4375 0.423856 1.64737 0.213989 1.90625 0.213989Z" fill="black"/>
<path fill-rule="evenodd" clip-rule="evenodd" d="M23.0938 0.213989C23.3526 0.213989 23.5625 0.423856 23.5625 0.68274V15.2546C23.5625 15.5135 23.3526 15.7233 23.0938 15.7233C22.8349 15.7233 22.625 15.5135 22.625 15.2546V0.68274C22.625 0.423856 22.8349 0.213989 23.0938 0.213989Z" fill="black"/>
<path fill-rule="evenodd" clip-rule="evenodd" d="M3.3125 2.34375C3.3125 2.08487 3.52237 1.875 3.78125 1.875H21.2187C21.4776 1.875 21.6874 2.08487 21.6874 2.34375V13.5937C21.6874 13.8526 21.4776 14.0625 21.2187 14.0625H3.78125C3.52237 14.0625 3.3125 13.8526 3.3125 13.5937V2.34375ZM4.25 2.8125V13.125H20.7499V2.8125H4.25Z" fill="black"/>
<path fill-rule="evenodd" clip-rule="evenodd" d="M12.5 15.2344C12.7589 15.2344 12.9688 15.4442 12.9688 15.7031V22.5938C12.9688 22.8527 12.7589 23.0625 12.5 23.0625C12.2411 23.0625 12.0312 22.8527 12.0312 22.5938V15.7031C12.0312 15.4442 12.2411 15.2344 12.5 15.2344Z" fill="black"/>
<path fill-rule="evenodd" clip-rule="evenodd" d="M12.1685 19.4498C12.3516 19.2667 12.6484 19.2667 12.8315 19.4498L16.5815 23.1997C16.7645 23.3828 16.7645 23.6796 16.5815 23.8627C16.3984 24.0457 16.1016 24.0457 15.9185 23.8627L12.5 20.4442L9.08146 23.8627C8.8984 24.0457 8.6016 24.0457 8.41854 23.8627C8.23548 23.6796 8.23549 23.3828 8.41855 23.1997L12.1685 19.4498Z" fill="black"/>
<path fill-rule="evenodd" clip-rule="evenodd" d="M6.6188 6.73659C7.03138 5.80461 7.89765 5.11828 8.9375 4.95771V7.3579L6.6188 6.73659ZM6.37666 7.64229C6.36524 7.74954 6.35938 7.85846 6.35938 7.96875C6.35938 8.92777 6.80245 9.78331 7.49507 10.3418L8.695 8.2635L6.37666 7.64229ZM8.30663 10.8112C8.64773 10.9432 9.01853 11.0156 9.40625 11.0156C10.0785 11.0156 10.6999 10.7979 11.2038 10.4292L9.50688 8.73229L8.30663 10.8112ZM12.4531 7.96875C12.4531 8.64099 12.2354 9.26237 11.8667 9.76626L9.875 7.77459V4.95771C11.3352 5.18318 12.4531 6.44541 12.4531 7.96875ZM5.42188 7.96875C5.42188 5.76824 7.20574 3.98438 9.40625 3.98438C11.6068 3.98438 13.3906 5.76824 13.3906 7.96875C13.3906 10.1693 11.6068 11.9531 9.40625 11.9531C7.20574 11.9531 5.42188 10.1693 5.42188 7.96875Z" fill="black" fill-opacity="0.8"/>
<path fill-rule="evenodd" clip-rule="evenodd" d="M14.5625 5.85938C14.5625 5.60049 14.7724 5.39062 15.0313 5.39062H19.1093C19.3682 5.39062 19.578 5.60049 19.578 5.85938C19.578 6.11826 19.3682 6.32813 19.1093 6.32813H15.0313C14.7724 6.32813 14.5625 6.11826 14.5625 5.85938Z" fill="black" fill-opacity="0.8"/>
<path fill-rule="evenodd" clip-rule="evenodd" d="M14.5625 7.96875C14.5625 7.70987 14.7724 7.5 15.0313 7.5H19.1093C19.3682 7.5 19.578 7.70987 19.578 7.96875C19.578 8.22763 19.3682 8.4375 19.1093 8.4375H15.0313C14.7724 8.4375 14.5625 8.22763 14.5625 7.96875Z" fill="black" fill-opacity="0.6"/>
<path fill-rule="evenodd" clip-rule="evenodd" d="M14.5625 10.0781C14.5625 9.81924 14.7724 9.60938 15.0313 9.60938H19.1093C19.3682 9.60938 19.578 9.81924 19.578 10.0781C19.578 10.337 19.3682 10.5469 19.1093 10.5469H15.0313C14.7724 10.5469 14.5625 10.337 14.5625 10.0781Z" fill="black" fill-opacity="0.4"/>
</g>
<defs>
<clipPath id="clip0_46_7676">
<rect width="24" height="24" fill="white" transform="translate(0.5)"/>
</clipPath>
</defs>
</svg>
