<svg width="100%" viewBox="0 0 33 32" fill="none" xmlns="http://www.w3.org/2000/svg">
<path d="M16.5 14.5C16.2239 14.5 16 14.2761 16 14C15.7239 14 15.5 13.7761 15.5 13.5C15.5 13.2239 15.7239 13 16 13H16.5C15.9486 13 15.5 12.5514 15.5 12C15.5 11.6309 15.7016 11.3086 16 11.1353V11C16 10.7239 16.2239 10.5 16.5 10.5C16.7761 10.5 17 10.7239 17 11C17.2761 11 17.5 11.2239 17.5 11.5C17.5 11.7761 17.2761 12 17 12H16.5C17.0514 12 17.5 12.4486 17.5 13C17.5 13.3691 17.2984 13.6914 17 13.8647V14C17 14.2761 16.7761 14.5 16.5 14.5ZM13 5C13 4.86594 13.0531 4.7445 13.1389 4.65475L11.0931 1.79062C10.9843 1.63819 10.9697 1.43775 11.0554 1.27112C11.1411 1.10469 11.3127 1 11.5 1H21.5C21.6873 1 21.8589 1.10469 21.9446 1.27119C22.0303 1.43775 22.0157 1.63819 21.9068 1.79069L19.8611 4.65475C19.9469 4.7445 20 4.86594 20 5V6.56138C21.0286 6.691 21.9443 7.0285 22.7774 7.584L24.2774 8.58431C24.4164 8.67706 24.5 8.83313 24.5 9.00031V18.5C24.5 19.8785 23.3785 21 22 21V24.5C22 24.5849 21.9783 24.6685 21.9371 24.7428L19.5439 29.0506L19.9743 30.3419C20.0251 30.4944 19.9996 30.662 19.9056 30.7924C19.8116 30.9228 19.6607 31 19.4999 31H13.4999C13.3392 31 13.1883 30.9228 13.0943 30.7924C13.0003 30.662 12.9747 30.4944 13.0256 30.3419L13.4511 29.0653L11.0759 25.265C11.0263 25.1856 10.9999 25.0937 10.9999 25V22C10.9999 21.6161 11.1451 21.2656 11.3831 21H11C9.6215 21 8.5 19.8785 8.5 18.5V9.00031C8.5 8.83313 8.5835 8.67706 8.72262 8.58431L10.2226 7.584C11.0293 7.04612 11.9757 6.70106 13 6.56556V5ZM21 19C21 18.7243 20.7757 18.5 20.5 18.5C20.2243 18.5 20 18.7243 20 19V22.5C20 22.7761 19.7761 23 19.5 23C19.2239 23 19 22.7761 19 22.5V19V17C19 16.7243 18.7757 16.5 18.5 16.5C18.2243 16.5 18 16.7243 18 17V22.5C18 22.7761 17.7761 23 17.5 23C17.2239 23 17 22.7761 17 22.5V17V16C17 15.7243 16.7757 15.5 16.5 15.5C16.2243 15.5 16 15.7243 16 16V22.5C16 22.7761 15.7761 23 15.5 23C15.2239 23 15 22.7761 15 22.5V17.5C15 17.2243 14.7757 17 14.5 17C14.2243 17 14 17.2243 14 17.5V23.5C14 23.7761 13.7761 24 13.5 24C13.2239 24 13 23.7761 13 23.5V22C13 21.7243 12.7757 21.5 12.5 21.5C12.2243 21.5 12 21.7243 12 22V24.8566L14.424 28.735C14.5031 28.8614 14.5215 29.0166 14.4743 29.1582L14.1938 30H18.8062L18.5256 29.1581C18.4813 29.0251 18.4948 28.8797 18.5629 28.7572L21 24.3704V19ZM19.5 12.5C19.5 10.8458 18.1542 9.5 16.5 9.5C14.8458 9.5 13.5 10.8458 13.5 12.5C13.5 13.666 14.19 14.7256 15.2228 15.2145C15.4872 14.7862 15.9607 14.5 16.5 14.5C17.0393 14.5 17.5128 14.7861 17.7772 15.2145C18.8099 14.7256 19.5 13.6659 19.5 12.5ZM22.2226 8.416C21.2982 7.79963 20.2441 7.5 19 7.5H14C12.7904 7.5 11.6761 7.81675 10.7774 8.416L9.5 9.26781V18.5C9.5 19.3271 10.1729 20 11 20H13V17.5C13 16.6729 13.6729 16 14.5 16C14.5231 16 14.546 16.0007 14.5689 16.0018C13.3194 15.3074 12.5 13.9668 12.5 12.5C12.5 10.2944 14.2944 8.5 16.5 8.5C18.7056 8.5 20.5 10.2944 20.5 12.5C20.5 13.7183 19.9346 14.8496 19.0273 15.5959C19.5949 15.8098 20 16.3584 20 17V17.586C20.1565 17.5305 20.3247 17.5 20.5 17.5C21.3271 17.5 22 18.1729 22 19V20C22.8271 20 23.5 19.3271 23.5 18.5V9.26781L22.2226 8.416ZM19 6.5V5.5H14V6.5H19ZM12.4716 2L14.2573 4.5H18.7427L20.5284 2H12.4716ZM4.5 14V18.1922C4.595 18.1337 4.69981 18.0815 4.81431 18.0357C5.7215 17.6728 6.56512 18.0564 6.96375 19.0129L8.8925 23.6419C8.96881 23.7162 9.02169 23.8151 9.03819 23.9271L9.99469 30.4271C10.0159 30.5709 9.97344 30.7167 9.87844 30.8267C9.78344 30.9368 9.64531 31 9.5 31H4C3.85781 31 3.72231 30.9394 3.62744 30.8334C3.53256 30.7275 3.48738 30.5861 3.50306 30.4447L3.98675 26.0916L1.55281 21.2236C1.51806 21.1542 1.5 21.0776 1.5 21V14C1.5 13.1729 2.17287 12.5 3 12.5C3.82713 12.5 4.5 13.1729 4.5 14ZM4.03756 20.1908C3.85669 19.7868 3.79663 19.4176 3.85788 19.0895L3.62844 18.8345C3.54569 18.7427 3.5 18.6236 3.5 18.5V14C3.5 13.7243 3.27569 13.5 3 13.5C2.72431 13.5 2.5 13.7243 2.5 14V20.8819L4.94719 25.7764C4.99031 25.8626 5.00756 25.9594 4.99694 26.0553L4.55863 30H8.92106L8.07744 24.2673C8.0625 24.2437 8.04944 24.2187 8.03844 24.1923L6.04063 19.3975C5.76375 18.7331 5.32862 18.9071 5.18569 18.9642C5.00619 19.0359 4.89537 19.1217 4.85631 19.2191C4.80731 19.3411 4.84237 19.545 4.95512 19.7931C4.95981 19.8034 4.96419 19.8138 4.96812 19.8244L6.46812 23.8244C6.56506 24.083 6.43406 24.3712 6.1755 24.4681C5.91681 24.5652 5.62875 24.4341 5.53175 24.1755L4.03756 20.1908ZM31.5 14V21C31.5 21.0776 31.4819 21.1542 31.4472 21.2236L29.0133 26.0916L29.4969 30.4447C29.5126 30.5861 29.4674 30.7274 29.3726 30.8334C29.2777 30.9394 29.1422 31 29 31H23.5C23.3541 31 23.2155 30.9363 23.1205 30.8256C23.0255 30.7149 22.9836 30.5682 23.0058 30.4239L24.0058 23.9239C24.012 23.884 24.0229 23.8449 24.0384 23.8077L26.0362 19.0129C26.4347 18.0564 27.2784 17.6727 28.1857 18.0357C28.3002 18.0815 28.405 18.1337 28.5 18.1922V14C28.5 13.1729 29.1729 12.5 30 12.5C30.8271 12.5 31.5 13.1729 31.5 14ZM30.5 14C30.5 13.7243 30.2757 13.5 30 13.5C29.7243 13.5 29.5 13.7243 29.5 14V18.5C29.5 18.6236 29.4543 18.7427 29.3716 18.8345L29.1422 19.0894C29.2034 19.4176 29.1434 19.7868 28.9625 20.1908L27.4682 24.1756L27.4678 24.1754C27.3966 24.3649 27.2143 24.5 27 24.5C26.7239 24.5 26.5 24.2761 26.5 24C26.5 23.9382 26.5117 23.8792 26.5322 23.8246L26.5318 23.8245L28.0318 19.8245C28.0357 19.8139 28.0401 19.8034 28.0448 19.7931C28.1576 19.5451 28.1926 19.3413 28.1436 19.2191C28.1046 19.1217 27.9938 19.036 27.8143 18.9643C27.6713 18.907 27.2361 18.733 26.9593 19.3976L24.9849 24.1362L24.0828 30H28.4414L28.0031 26.0553C27.9924 25.9594 28.0097 25.8626 28.0528 25.7764L30.5 20.8819V14Z" fill="white"/>
</svg>
