<svg width="100%" viewBox="0 0 25 24" fill="none" xmlns="http://www.w3.org/2000/svg">
<path d="M22.4821 16.125H2.5182L2.04197 17.0812C1.91436 17.3185 2.10107 17.6332 2.37572 17.625C2.37571 17.625 12.1252 17.625 12.1252 17.625V19.5562C10.7006 19.9911 10.9912 22.1082 12.5002 22.1249C14.0095 22.1066 14.3 19.9927 12.8751 19.5562C12.8751 19.5562 12.8751 17.625 12.8751 17.625H22.6246C22.8965 17.6335 23.0888 17.3182 22.9583 17.0812C22.9583 17.0812 22.4821 16.125 22.4821 16.125Z" fill="white"/>
<path d="M11.2109 9.75014C11.2635 11.4553 13.7385 11.4549 13.7908 9.75011C13.7383 8.04501 11.2632 8.0454 11.2109 9.75014Z" fill="white"/>
<path d="M22.2499 15.375V4.12512H2.75098V15.375H22.2499ZM18.5001 5.62511H20C20.4922 5.63443 20.4929 6.36567 20 6.3751H18.5001C18.008 6.36579 18.0072 5.63455 18.5001 5.62511ZM18.5001 13.1251H20C20.4922 13.1344 20.4929 13.8656 20 13.875H18.5001C18.008 13.8657 18.0072 13.1345 18.5001 13.1251ZM12.5004 5.62511C15.6502 5.5797 17.6907 9.18193 16.0477 11.8463C14.4917 14.5332 10.5086 14.5329 8.95314 11.8462C7.3106 9.18234 9.35032 5.57915 12.5004 5.62511ZM5.00086 5.62511H6.50077C6.99292 5.63443 6.99367 6.36567 6.50076 6.3751H5.00086C4.50871 6.36579 4.50796 5.63455 5.00086 5.62511Z" fill="white"/>
<path d="M10.5758 10.4288C10.1443 9.2765 10.9329 7.93785 12.1245 7.74383C12.1245 7.74381 12.1245 6.39758 12.1245 6.39758C9.93655 6.5848 8.46676 9.09178 9.40968 11.1001C9.40962 11.1 10.5758 10.4288 10.5758 10.4288Z" fill="white" fill-opacity="0.4"/>
<path d="M12.5002 11.7901C11.8814 11.7901 11.3265 11.5127 10.9515 11.0776L9.78906 11.7489C11.0588 13.5655 13.942 13.5651 15.2112 11.7488C15.2112 11.7489 14.0488 11.0776 14.0488 11.0776C13.6738 11.5126 13.1189 11.7901 12.5002 11.7901Z" fill="white" fill-opacity="0.8"/>
<path d="M14.5399 9.75006C14.5399 9.98631 14.4987 10.2151 14.4237 10.4288L15.5898 11.1C15.7736 10.6875 15.8748 10.23 15.8748 9.75006C15.8748 8.01757 14.5587 6.58508 12.875 6.39758V7.74381C13.8237 7.92007 14.5399 8.75255 14.5399 9.75006Z" fill="white" fill-opacity="0.6"/>
<path d="M2.51805 3.37515H22.482L22.9582 2.41891C23.0858 2.18189 22.8991 1.86676 22.6244 1.87517C22.6244 1.87516 2.37556 1.87516 2.37556 1.87516C2.10367 1.86685 1.91137 2.18183 2.04183 2.41892C2.04182 2.41891 2.51805 3.37515 2.51805 3.37515Z" fill="white"/>
</svg>
