<svg width="100%" viewBox="0 0 25 24" fill="none" xmlns="http://www.w3.org/2000/svg">
<g clip-path="url(#clip0_46_7697)">
<path d="M2.12413 13.3409H13.7852C14.1336 13.3409 14.4677 13.4793 14.7141 13.7257C14.9604 13.972 15.0988 14.3061 15.0988 14.6545C15.0988 14.827 15.0648 14.9979 14.9988 15.1572C14.9328 15.3166 14.836 15.4614 14.7141 15.5834C14.5921 15.7054 14.4473 15.8021 14.2879 15.8681C14.1285 15.9341 13.9577 15.9681 13.7852 15.9681H2.12413C1.77574 15.9681 1.44163 15.8297 1.19528 15.5834C0.948941 15.337 0.810547 15.0029 0.810547 14.6545C0.810547 14.482 0.844523 14.3112 0.910536 14.1518C0.97655 13.9925 1.07331 13.8477 1.19528 13.7257C1.31726 13.6037 1.46207 13.5069 1.62144 13.4409C1.78081 13.3749 1.95162 13.3409 2.12413 13.3409Z" fill="black"/>
<path d="M13.7847 8.03198H7.32144C6.59594 8.03198 6.00781 8.62011 6.00781 9.34561C6.00781 10.0711 6.59594 10.6592 7.32144 10.6592H13.7847C14.5102 10.6592 15.0984 10.0711 15.0984 9.34561C15.0984 8.62011 14.5102 8.03198 13.7847 8.03198Z" fill="black"/>
<path d="M13.7847 18.65H7.32144C6.59594 18.65 6.00781 19.2382 6.00781 19.9636C6.00781 20.6891 6.59594 21.2773 7.32144 21.2773H13.7847C14.5102 21.2773 15.0984 20.6891 15.0984 19.9636C15.0984 19.2382 14.5102 18.65 13.7847 18.65Z" fill="black"/>
<path d="M13.7852 2.72278H2.12413C1.77574 2.72278 1.44163 2.86117 1.19528 3.10752C0.948941 3.35386 0.810547 3.68797 0.810547 4.03636C0.810547 4.38474 0.948941 4.71885 1.19528 4.9652C1.44163 5.21154 1.77574 5.34993 2.12413 5.34993H13.7852C14.1336 5.34993 14.4677 5.21154 14.714 4.9652C14.9604 4.71885 15.0988 4.38474 15.0988 4.03636C15.0988 3.68797 14.9604 3.35386 14.714 3.10752C14.4677 2.86117 14.1336 2.72278 13.7852 2.72278Z" fill="black"/>
<path d="M22.8761 2.72278H18.5564C18.2081 2.72278 17.8741 2.86113 17.6278 3.10741C17.3815 3.35368 17.2432 3.68769 17.2432 4.03598V19.9641C17.2432 20.3123 17.3815 20.6464 17.6278 20.8926C17.8741 21.1389 18.2081 21.2773 18.5564 21.2773H22.8761C23.2244 21.2773 23.5584 21.1389 23.8047 20.8926C24.051 20.6464 24.1893 20.3123 24.1893 19.9641V4.03598C24.1893 3.68769 24.051 3.35368 23.8047 3.1074C23.5584 2.86113 23.2244 2.72278 22.8761 2.72278ZM22.3664 15.12L18.6893 12L22.3664 8.88005L22.3664 15.12Z" fill="black" fill-opacity="0.6"/>
</g>
<defs>
<clipPath id="clip0_46_7697">
<rect width="24" height="24" fill="white" transform="translate(0.5)"/>
</clipPath>
</defs>
</svg>
