<svg width="100%" viewBox="0 0 48 48" fill="none" xmlns="http://www.w3.org/2000/svg">
<path d="M21.2288 35.5912L22.984 31.5708C24.5462 27.9932 27.3578 25.1452 30.865 23.5884L35.6964 21.4438C37.2324 20.762 37.2324 18.5274 35.6964 17.8455L31.0158 15.7679C27.4184 14.171 24.5564 11.2176 23.021 7.51788L21.243 3.23346C20.5832 1.64353 18.3864 1.64354 17.7266 3.23346L15.9485 7.51784C14.4131 11.2176 11.5511 14.171 7.9537 15.7679L3.27316 17.8455C1.73707 18.5274 1.73707 20.762 3.27316 21.4438L8.1046 23.5884C11.6118 25.1452 14.4234 27.9932 15.9855 31.5708L17.7408 35.5912C18.4155 37.1364 20.554 37.1364 21.2288 35.5912ZM38.8028 45.3798L39.2964 44.2484C40.1764 42.2312 41.7614 40.625 43.739 39.7464L45.2598 39.0706C46.0824 38.7052 46.0824 37.5098 45.2598 37.1444L43.8242 36.5064C41.7956 35.6052 40.1822 33.9396 39.3172 31.8538L38.8104 30.6312C38.457 29.7792 37.279 29.7792 36.9256 30.6312L36.4188 31.8538C35.554 33.9396 33.9406 35.6052 31.912 36.5064L30.4762 37.1444C29.6538 37.5098 29.6538 38.7052 30.4762 39.0706L31.997 39.7464C33.9748 40.625 35.5596 42.2312 36.4396 44.2484L36.9334 45.3798C37.2946 46.208 38.4414 46.208 38.8028 45.3798Z" fill="#3FFFB2"/>
</svg>
