<svg width="100%" viewBox="0 0 25 24" fill="none" xmlns="http://www.w3.org/2000/svg">
<path d="M6.875 1.5C4.1825 1.5 2 3.6825 2 6.375C2 9.0675 4.1825 11.25 6.875 11.25C9.5675 11.25 11.75 9.0675 11.75 6.375C11.75 3.6825 9.5675 1.5 6.875 1.5ZM7.78625 5.53125C7.9925 5.53125 8.16125 5.7 8.16125 5.90625C8.16125 6.1125 7.9925 6.28125 7.78625 6.28125H6.755V9.1875C6.755 9.39375 6.58625 9.5625 6.38 9.5625C6.17375 9.5625 6.005 9.39375 6.005 9.1875V6.28125H5.21C5.00375 6.28125 4.835 6.1125 4.835 5.90625C4.835 5.7 5.00375 5.53125 5.21 5.53125H6.005V4.5C6.005 3.77625 6.59375 3.1875 7.3175 3.1875H7.78625C7.9925 3.1875 8.16125 3.35625 8.16125 3.5625C8.16125 3.76875 7.9925 3.9375 7.78625 3.9375H7.3175C7.00625 3.9375 6.755 4.18875 6.755 4.5V5.53125H7.78625Z" fill="white"/>
<path d="M18.125 6.75C18.3321 6.75 18.5 6.58211 18.5 6.375C18.5 6.16789 18.3321 6 18.125 6C17.9179 6 17.75 6.16789 17.75 6.375C17.75 6.58211 17.9179 6.75 18.125 6.75Z" fill="white" fill-opacity="0.6"/>
<path d="M19.625 4.5H16.625C16.4187 4.5 16.25 4.66875 16.25 4.875V7.875C16.25 8.08125 16.4187 8.25 16.625 8.25H19.625C19.8312 8.25 20 8.08125 20 7.875V4.875C20 4.66875 19.8312 4.5 19.625 4.5ZM18.125 7.5C17.5063 7.5 17 6.99375 17 6.375C17 5.75625 17.5063 5.25 18.125 5.25C18.7438 5.25 19.25 5.75625 19.25 6.375C19.25 6.99375 18.7438 7.5 18.125 7.5Z" fill="white" fill-opacity="0.6"/>
<path d="M18.125 1.5C15.4325 1.5 13.25 3.6825 13.25 6.375C13.25 9.0675 15.4325 11.25 18.125 11.25C20.8175 11.25 23 9.0675 23 6.375C23 3.6825 20.8175 1.5 18.125 1.5ZM20.75 7.875C20.75 8.49375 20.2438 9 19.625 9H16.625C16.0062 9 15.5 8.49375 15.5 7.875V4.875C15.5 4.25625 16.0062 3.75 16.625 3.75H19.625C20.2438 3.75 20.75 4.25625 20.75 4.875V7.875Z" fill="white" fill-opacity="0.6"/>
<path d="M18.125 12.75C15.4325 12.75 13.25 14.9325 13.25 17.625C13.25 20.3175 15.4325 22.5 18.125 22.5C20.8175 22.5 23 20.3175 23 17.625C23 14.9325 20.8175 12.75 18.125 12.75ZM19.7 18.1462L17.9 19.185C17.4988 19.4175 17 19.1288 17 18.6638V16.5862C17 16.125 17.4988 15.8363 17.9 16.065L19.7 17.1038C20.1013 17.3363 20.1013 17.9138 19.7 18.1425V18.1462Z" fill="white"/>
<path d="M5.97168 18.375H7.45668L7.77918 16.875H6.29418L5.97168 18.375Z" fill="white" fill-opacity="0.8"/>
<path d="M6.875 12.75C4.1825 12.75 2 14.9325 2 17.625C2 20.3175 4.1825 22.5 6.875 22.5C9.5675 22.5 11.75 20.3175 11.75 17.625C11.75 14.9325 9.5675 12.75 6.875 12.75ZM9.74375 16.875H8.5475L8.225 18.375H9.26C9.46625 18.375 9.635 18.5437 9.635 18.75C9.635 18.9563 9.46625 19.125 9.26 19.125H8.06375L7.805 20.3287C7.7675 20.505 7.61 20.625 7.4375 20.625C7.41125 20.625 7.385 20.625 7.35875 20.6175C7.15625 20.5725 7.02875 20.3738 7.07 20.1713L7.295 19.125H5.81375L5.555 20.3287C5.5175 20.505 5.36 20.625 5.1875 20.625C5.16125 20.625 5.135 20.625 5.10875 20.6175C4.90625 20.5725 4.77875 20.3738 4.82 20.1713L5.045 19.125H4.01C3.80375 19.125 3.635 18.9563 3.635 18.75C3.635 18.5437 3.80375 18.375 4.01 18.375H5.20625L5.52875 16.875H4.49375C4.2875 16.875 4.11875 16.7062 4.11875 16.5C4.11875 16.2938 4.2875 16.125 4.49375 16.125H5.69L5.94875 14.9213C5.99375 14.7188 6.1925 14.5913 6.395 14.6325C6.5975 14.6775 6.725 14.8762 6.68375 15.0787L6.45875 16.125H7.94L8.19875 14.9213C8.24375 14.7188 8.4425 14.5913 8.645 14.6325C8.8475 14.6775 8.975 14.8762 8.93375 15.0787L8.70875 16.125H9.74375C9.95 16.125 10.1187 16.2938 10.1187 16.5C10.1187 16.7062 9.95 16.875 9.74375 16.875Z" fill="white" fill-opacity="0.8"/>
</svg>
