<svg width="100%" viewBox="0 0 48 48" fill="none" xmlns="http://www.w3.org/2000/svg">
<path d="M19.9462 36H28.0538C28.3178 33.5968 29.5442 31.613 31.5352 29.4452C31.7594 29.2012 33.1976 27.7128 33.3682 27.5002C35.0636 25.3862 36 22.77 36 20C36 13.3726 30.6274 8 24 8C17.3726 8 12 13.3726 12 20C12 22.7686 12.9355 25.3834 14.6292 27.4968C14.8001 27.71 16.2416 29.2024 16.4631 29.4436C18.4553 31.6128 19.6821 33.5968 19.9462 36ZM28 40H20V42H28V40ZM11.5079 29.9984C9.3129 27.2594 8 23.783 8 20C8 11.1634 15.1634 4 24 4C32.8366 4 40 11.1634 40 20C40 23.785 38.6856 27.263 36.4886 30.0028C35.248 31.5496 32 34 32 37V42C32 44.2092 30.2092 46 28 46H20C17.7909 46 16 44.2092 16 42V37C16 34 12.7492 31.5472 11.5079 29.9984ZM26 20.0096H31L22 32.0096V24.0096H17L26 12V20.0096Z" fill="#3FFFB2"/>
</svg>
